<svg width="1500" height="750" viewBox="0 0 1500 750" fill="none" xmlns="http://www.w3.org/2000/svg">
<g clip-path="url(#clip0_747_237)">
<g opacity="0.3" clip-path="url(#clip1_747_237)">
<path d="M1201.07 546.531C1199 543.742 1196.42 541.215 1193.2 539.924C1189.98 538.634 1186.04 538.795 1183.32 540.961C1180.6 543.143 1179.61 546.784 1178.84 550.187C1175.63 564.184 1173.18 578.787 1176.19 592.83C1177.55 599.167 1179.99 605.229 1181.53 611.535C1183.02 617.666 1183.66 623.988 1185.24 630.095C1189.27 645.659 1199.15 658.956 1208.8 671.808" stroke="#F0F2DA" stroke-miterlimit="10"/>
<path d="M1282.75 599.874C1279.83 592.822 1273.63 587.76 1267.67 583.005C1259.81 576.736 1251.83 570.391 1242.6 566.427C1237.12 564.076 1231.31 562.625 1225.52 561.173C1219.85 559.751 1214.17 558.33 1208.49 556.909C1204.44 555.895 1199.69 555.027 1196.47 557.677C1194.07 559.659 1193.33 563.17 1194.06 566.197C1194.79 569.223 1196.77 571.804 1199.02 573.955C1204.26 578.987 1211.06 582.044 1217.79 584.802C1228.8 589.319 1240.03 593.298 1251.43 596.717" stroke="#F0F2DA" stroke-miterlimit="10"/>
<path d="M1237.72 595.833C1239.86 596.602 1241.15 598.745 1242.81 600.289C1245.59 602.87 1249.48 603.8 1253.18 604.637C1256.14 605.305 1259.1 605.974 1262.05 606.642" stroke="#F0F2DA" stroke-miterlimit="10"/>
<path d="M1241.95 602.44C1243.14 606.335 1244.49 610.468 1247.64 613.041C1248.99 614.132 1250.58 614.869 1252.11 615.684C1255.71 617.596 1259.04 619.978 1262.35 622.352" stroke="#F0F2DA" stroke-miterlimit="10"/>
<path d="M1240.49 649.876C1233.18 634.781 1230.52 617.466 1232.95 600.873" stroke="#F0F2DA" stroke-miterlimit="10"/>
<path d="M1216.78 563.854C1216.26 567.264 1212.28 569.93 1213.14 573.264" stroke="#F0F2DA" stroke-miterlimit="10"/>
<path d="M1209.35 571.09C1205.71 568.294 1202.07 565.498 1198.42 562.701C1198.34 562.11 1198.26 561.518 1198.19 560.919" stroke="#F0F2DA" stroke-miterlimit="10"/>
<path d="M1180.6 561.956C1181.55 565.213 1183.97 568.017 1187.06 569.431C1187.56 569.661 1188.12 569.884 1188.43 570.337C1188.72 570.744 1188.77 571.274 1188.82 571.766C1189.54 578.772 1192.2 585.578 1196.43 591.209C1198.92 594.52 1202.4 597.639 1206.55 597.6C1207.92 597.585 1209.37 597.155 1210.18 596.049C1210.72 595.319 1210.91 594.397 1211.08 593.506C1211.38 591.916 1211.68 590.333 1211.99 588.743" stroke="#F0F2DA" stroke-miterlimit="10"/>
<path d="M1207.37 584.756C1205.24 584.533 1203.08 584.633 1200.98 585.048C1201.25 587.468 1201.52 589.88 1201.79 592.3" stroke="#F0F2DA" stroke-miterlimit="10"/>
<path d="M1185.92 534.163C1177.72 510.741 1173.28 486.197 1168.89 461.768C1168.37 458.872 1167.9 455.684 1169.41 453.157C1171.64 449.416 1177.35 449.17 1180.98 451.574C1184.61 453.979 1186.6 458.158 1188.2 462.214C1197.83 486.581 1199.73 514.021 1213.25 536.46" stroke="#F0F2DA" stroke-miterlimit="10"/>
<path d="M1211.83 541.584C1216.87 540.186 1222.65 538.119 1224.26 533.141C1224.84 531.359 1224.77 529.439 1224.7 527.564C1223.64 497.781 1225.25 467.968 1226.85 438.208C1227 435.465 1227.21 432.546 1228.82 430.319C1232.3 425.51 1240.46 427.038 1244.1 431.724C1247.74 436.41 1248.12 442.771 1248.32 448.701C1249.27 476.495 1249.49 504.311 1248.96 532.112" stroke="#F0F2DA" stroke-miterlimit="10"/>
<path d="M1247.77 535.546C1252.68 535.139 1256.99 531.828 1259.79 527.756C1262.58 523.692 1264.11 518.907 1265.61 514.205C1272.26 493.264 1278.9 472.323 1285.54 451.382C1287.04 446.658 1290.26 440.851 1295.11 441.888C1298.32 442.571 1300.03 446.067 1300.9 449.239C1302.7 455.769 1302.92 462.721 1301.54 469.343C1300.62 473.806 1298.99 478.108 1298.26 482.602C1297.56 486.85 1297.68 491.183 1297.22 495.461C1296.02 506.7 1290.94 517.086 1287.52 527.864C1281.33 547.437 1280.73 568.747 1285.78 588.643C1287.02 593.498 1288.58 598.276 1289.47 603.2C1293.19 623.765 1284.96 645.059 1288.43 665.67C1293.88 698.026 1306.26 732.902 1319.7 762.839" stroke="#F0F2DA" stroke-miterlimit="10"/>
<path d="M1274.66 498.196C1279.14 499.172 1283.55 500.508 1287.83 502.191" stroke="#F0F2DA" stroke-miterlimit="10"/>
<path d="M1272.1 502.782C1275.75 504.733 1279.67 506.162 1283.73 506.984" stroke="#F0F2DA" stroke-miterlimit="10"/>
<path d="M1283.74 471.425C1286.92 472.976 1290.39 473.921 1293.92 474.198" stroke="#F0F2DA" stroke-miterlimit="10"/>
<path d="M1229.13 463.228C1233.47 464.188 1238.04 464.081 1242.33 462.921" stroke="#F0F2DA" stroke-miterlimit="10"/>
<path d="M1179.04 487.941C1182.89 488.24 1186.81 487.434 1190.23 485.636" stroke="#F0F2DA" stroke-miterlimit="10"/>
<path d="M1185.1 512.869C1189.11 512.992 1193.15 512.1 1196.73 510.303" stroke="#F0F2DA" stroke-miterlimit="10"/>
<path d="M1187.64 516.963C1190.08 516.594 1192.46 515.888 1194.71 514.866" stroke="#F0F2DA" stroke-miterlimit="10"/>
<path d="M1230.12 491.812C1234.69 492.066 1239.24 492.327 1243.8 492.581" stroke="#F0F2DA" stroke-miterlimit="10"/>
<path d="M1227.62 495.515C1232.18 495.876 1236.72 496.245 1241.28 496.606" stroke="#F0F2DA" stroke-miterlimit="10"/>
<path d="M1255.84 569.461C1259.93 563.001 1263.31 556.095 1265.9 548.897" stroke="#F0F2DA" stroke-miterlimit="10"/>
<path d="M1231.98 756.163C1224.24 732.61 1217.86 708.604 1212.89 684.314" stroke="#F0F2DA" stroke-miterlimit="10"/>
<path d="M1186.63 573.479C1183.99 573.179 1181.52 571.72 1179.97 569.561" stroke="#F0F2DA" stroke-miterlimit="10"/>
<path d="M1187.12 578.219C1185.44 578.019 1183.75 577.827 1182.07 577.627" stroke="#F0F2DA" stroke-miterlimit="10"/>
<path d="M1264.98 534.731C1268.79 536.882 1272.72 538.818 1276.76 540.516" stroke="#F0F2DA" stroke-miterlimit="10"/>
<path d="M1227.55 532.319C1232.21 531.374 1237.03 531.159 1241.76 531.682" stroke="#F0F2DA" stroke-miterlimit="10"/>
<path d="M1199.83 540.8C1202.54 539.632 1205.43 538.872 1208.37 538.557" stroke="#F0F2DA" stroke-miterlimit="10"/>
<path d="M1236.24 603.93C1236.28 609.031 1239.03 613.663 1241.7 618.011C1244.59 622.713 1247.51 627.437 1251.28 631.47C1255.04 635.503 1259.76 638.837 1265.13 640.074" stroke="#F0F2DA" stroke-miterlimit="10"/>
<path d="M1211.39 674.512C1226.01 676.225 1240.78 676.601 1255.46 675.641" stroke="#F0F2DA" stroke-miterlimit="10"/>
<path d="M1210.91 678.806C1214.73 679.751 1218.63 680.381 1222.56 680.68" stroke="#F0F2DA" stroke-miterlimit="10"/>
<path d="M1490.07 674.596C1484.33 673.475 1478.94 671.017 1473.61 668.581C1466.52 665.332 1459.42 662.082 1452.32 658.833C1444.56 655.276 1436.71 651.666 1430.12 646.235C1420.45 638.253 1414.19 626.899 1405.47 617.896C1399.03 611.259 1391.35 605.981 1383.71 600.781C1379.36 597.815 1374.97 594.827 1371.39 590.971C1368.91 588.297 1366.86 585.255 1364.39 582.59C1357.34 575 1346.5 569.922 1343.82 559.913C1344.9 557.777 1346.18 555.073 1348.4 554.167C1354.66 551.601 1361.82 551.609 1368.27 553.644C1374.71 555.68 1380.46 559.667 1385.07 564.614C1386.93 566.611 1388.68 568.893 1389.16 571.582C1389.72 574.685 1388.48 577.896 1386.55 580.393C1384.61 582.882 1382.03 584.779 1379.48 586.638" stroke="#F0F2DA" stroke-miterlimit="10"/>
<path d="M1370.29 521.833C1373.16 523.662 1376.24 525.152 1379.45 526.281C1379.77 526.389 1380.12 526.496 1380.43 526.381C1380.76 526.258 1380.96 525.936 1381.12 525.628C1382.4 523.109 1382.69 520.097 1381.92 517.386" stroke="#F0F2DA" stroke-miterlimit="10"/>
<path d="M1368.91 525.498C1369.06 530.983 1375.04 534.701 1380.53 534.824C1386.01 534.939 1391.2 532.588 1396.47 531.083C1397.3 530.844 1398.18 530.629 1399.01 530.829C1399.86 531.036 1400.54 531.636 1401.28 532.104C1405.94 535.046 1412.27 532.388 1417.45 534.263C1417.93 534.44 1418.46 534.655 1418.95 534.486C1419.41 534.324 1419.68 533.879 1419.93 533.456C1421.37 530.96 1422.83 528.455 1424.27 525.959" stroke="#F0F2DA" stroke-miterlimit="10"/>
<path d="M1372.91 519.475C1379.99 513.875 1389.55 512.861 1398.55 512.07C1405.62 511.447 1412.69 510.825 1419.75 510.203C1421.98 510.003 1424.29 509.819 1426.38 510.61C1427.63 511.079 1428.72 511.862 1429.78 512.661C1435.45 516.948 1440.63 521.903 1445.16 527.387" stroke="#F0F2DA" stroke-miterlimit="10"/>
<path d="M1438.39 543.504C1443.17 540.839 1447.43 537.228 1450.84 532.942C1451.65 531.927 1452.43 530.814 1452.59 529.531C1452.79 527.902 1451.95 526.343 1451.22 524.875C1449.4 521.265 1448.01 517.439 1447.1 513.499C1446.22 509.688 1445.78 505.763 1444.53 502.052C1440.01 488.671 1426.35 481.058 1414.2 473.852C1410.78 471.824 1407.31 469.658 1404.94 466.47C1402.56 463.282 1401.48 458.819 1403.28 455.27" stroke="#F0F2DA" stroke-miterlimit="10"/>
<path d="M1392.31 573.287C1395.66 577.182 1400.14 580.086 1405.07 581.545C1406.3 581.914 1407.57 582.198 1408.66 582.889C1411.9 584.971 1412.03 589.596 1411.8 593.444C1411.57 597.109 1411.34 600.773 1411.12 604.437" stroke="#F0F2DA" stroke-miterlimit="10"/>
<path d="M1415.3 584.487C1420.47 585.809 1425.8 583.158 1430.18 580.101C1433.66 577.666 1437.1 574.685 1438.37 570.621C1439.51 566.98 1438.73 563.009 1437.42 559.429C1434.21 550.656 1427.78 543.105 1419.63 538.534" stroke="#F0F2DA" stroke-miterlimit="10"/>
<path d="M1452.48 573.917L1458.99 585.57C1460.59 588.428 1462.21 591.34 1462.89 594.543C1463.41 596.978 1463.37 599.498 1463.38 601.987C1463.41 611.259 1464.17 620.531 1465.64 629.688" stroke="#F0F2DA" stroke-miterlimit="10"/>
<path d="M1430.41 452.297C1424.79 451.859 1419.29 456.575 1418.86 462.183C1418.53 466.424 1420.78 470.534 1423.82 473.506C1426.86 476.479 1430.65 478.538 1434.33 480.697C1439.84 483.938 1445.18 487.48 1450.32 491.305" stroke="#F0F2DA" stroke-miterlimit="10"/>
<path d="M1442.49 760.258C1445.46 744.817 1448.44 729.376 1451.41 713.935C1454.55 697.634 1457.69 680.865 1454.63 664.548" stroke="#F0F2DA" stroke-miterlimit="10"/>
<path d="M1461.02 471.233C1458.44 469.75 1454.93 471.233 1453.34 473.737C1451.75 476.241 1451.65 479.429 1451.98 482.387C1453.05 492.204 1458.37 501.476 1466.3 507.361C1467.58 508.306 1469.01 509.197 1470.6 509.197C1471.74 509.197 1472.83 508.728 1473.87 508.267" stroke="#F0F2DA" stroke-miterlimit="10"/>
<path d="M1471.52 511.317C1471.95 517.578 1473.91 523.739 1477.19 529.085C1477.58 529.738 1478.02 530.399 1478.64 530.852C1479.34 531.351 1480.19 531.543 1481.03 531.705C1485.36 532.534 1489.81 532.696 1494.19 532.181" stroke="#F0F2DA" stroke-miterlimit="10"/>
<path d="M1479.74 534.148C1481.1 540.009 1482.47 545.878 1483.84 551.739C1484.36 553.975 1484.71 556.763 1482.89 558.169" stroke="#F0F2DA" stroke-miterlimit="10"/>
<path d="M1465.01 473.245C1470.3 485.89 1481.87 494.524 1491.94 503.827C1494.61 506.293 1497.22 508.859 1499.36 511.793C1504.7 519.099 1506.86 528.179 1508.9 536.99C1519.1 581.061 1529.36 626.469 1522.27 671.155" stroke="#F0F2DA" stroke-miterlimit="10"/>
<path d="M1464.66 508.828C1464.31 514.543 1465.3 520.343 1467.51 525.621C1468.14 527.111 1468.88 528.64 1468.81 530.261C1468.77 531.459 1468.28 532.627 1468.38 533.825C1468.65 536.89 1472.33 538.196 1475.35 538.795" stroke="#F0F2DA" stroke-miterlimit="10"/>
<path d="M1461.82 534.516C1459.57 534.071 1457.44 533.095 1455.63 531.689" stroke="#F0F2DA" stroke-miterlimit="10"/>
<path d="M1451.67 500.232C1450.48 499.948 1449.2 500.094 1448.1 500.631" stroke="#F0F2DA" stroke-miterlimit="10"/>
<path d="M1456.28 466.616C1448.3 464.588 1440.9 460.363 1435.11 454.517" stroke="#F0F2DA" stroke-miterlimit="10"/>
<path d="M1491.88 559.206C1493.48 561.288 1495.87 562.571 1498.19 563.792C1501.96 565.782 1505.74 567.764 1509.51 569.753" stroke="#F0F2DA" stroke-miterlimit="10"/>
<path d="M1474.86 574.631C1481.22 587.383 1495.11 596.002 1509.36 596.026" stroke="#F0F2DA" stroke-miterlimit="10"/>
<path d="M1422.23 595.833C1421.29 605.09 1419.42 614.255 1416.63 623.127" stroke="#F0F2DA" stroke-miterlimit="10"/>
<path d="M1476.15 645.95C1475.93 636.855 1475.72 627.76 1475.5 618.664C1475.25 607.986 1474.93 597.024 1470.8 587.176C1466.67 577.328 1457.78 568.716 1447.12 568.155" stroke="#F0F2DA" stroke-miterlimit="10"/>
<path d="M1482.55 623.112C1483.99 631.985 1485.67 641.034 1490.15 648.823C1494.64 656.613 1502.5 663.027 1511.48 663.388" stroke="#F0F2DA" stroke-miterlimit="10"/>
<path d="M1407.66 451.175C1411.82 450.476 1416.23 451.39 1419.77 453.672" stroke="#F0F2DA" stroke-miterlimit="10"/>
</g>
<g opacity="0.3" clip-path="url(#clip2_747_237)">
<path d="M433.59 53.2303C440.831 52.1474 448.225 52.0859 455.485 53.0519C445.589 69.1235 430.015 81.5895 412.197 87.7056" stroke="#F0F2DA" stroke-miterlimit="10"/>
<path d="M381.105 60.6385C357.664 69.1666 335.965 82.2417 312.083 89.4346" stroke="#F0F2DA" stroke-miterlimit="10"/>
<path d="M412.258 94.8185L403.717 90.6775C401.657 89.6807 399.425 88.4993 398.592 86.3642C401.173 84.8137 404.128 84.0384 407.004 83.1708C416.931 80.1866 426.459 75.8488 435.239 70.3172" stroke="#F0F2DA" stroke-miterlimit="10"/>
<path d="M246.863 107.998C242.412 100.707 233.19 98.1288 226.691 92.5911C222.368 88.9054 219.321 83.9584 215.428 79.8236C214.514 78.8514 213.502 77.8916 212.227 77.5162C210.559 77.024 208.781 77.6147 207.138 78.2054C200.05 80.7404 192.956 83.2754 185.868 85.8105C194.366 97.6488 201.889 110.195 208.333 123.276" stroke="#F0F2DA" stroke-miterlimit="10"/>
<path d="M287.147 122.987C301.666 115.277 316.657 108.466 332.004 102.602C336.167 101.015 340.361 99.4947 344.5 97.8334C361.907 90.8682 378.266 81.5587 394.557 72.2739" stroke="#F0F2DA" stroke-miterlimit="10"/>
<path d="M234.656 128.881C236.348 127.534 238.819 127.509 240.799 128.365C242.78 129.22 244.349 130.832 245.668 132.549C248.923 136.782 251.002 141.926 251.597 147.242" stroke="#F0F2DA" stroke-miterlimit="10"/>
<path d="M220.326 171.596C223.637 169.528 226.942 167.461 230.253 165.393C232.221 164.163 234.19 162.932 236.017 161.511C238.463 159.61 240.64 157.376 242.927 155.284C247.525 151.088 252.608 147.427 258.047 144.406" stroke="#F0F2DA" stroke-miterlimit="10"/>
<path d="M364.47 64.1088C350.515 61.6353 336.112 65.1979 323.126 70.8894C315.192 74.3659 307.411 78.7038 298.815 79.7682C293.444 80.4328 288.005 79.7805 282.628 79.1283C264.05 76.8763 245.422 74.612 227.2 70.3418C219.652 68.5698 212.141 66.4531 204.415 65.7702C196.69 65.0872 188.609 65.9486 181.876 69.8065" stroke="#F0F2DA" stroke-miterlimit="10"/>
<path d="M411.823 99.3471C404.349 102.614 396.875 105.875 389.394 109.143C381.516 112.582 372.968 116.662 369.431 124.519C368.541 126.488 368.02 128.678 368.29 130.82C368.511 132.579 369.247 134.222 369.964 135.847C376.138 149.808 381.46 164.15 385.893 178.764C378.799 182.21 370.779 183.729 362.919 183.108" stroke="#F0F2DA" stroke-miterlimit="10"/>
<path d="M350.368 179.638C352.894 178.475 355.285 177.016 357.474 175.3C341.465 168.476 325.456 161.652 309.447 154.823C308.214 154.3 306.951 153.764 305.615 153.684C301.789 153.463 298.839 156.871 296.546 159.954" stroke="#F0F2DA" stroke-miterlimit="10"/>
<path d="M285.148 157.364C286.08 165.289 288.06 173.085 291.022 180.487C285.927 184.615 280.371 188.166 274.491 191.058C273.762 191.414 272.977 191.771 272.174 191.673C271.272 191.562 270.549 190.916 269.85 190.338C258.17 180.653 232.884 180.493 220.326 171.983" stroke="#F0F2DA" stroke-miterlimit="10"/>
<path d="M184.102 151.525C187.591 149.389 191.466 147.98 195.304 146.584C207.046 142.32 218.794 138.049 230.535 133.785" stroke="#F0F2DA" stroke-miterlimit="10"/>
<path d="M235.22 140.701C237.777 138.862 240.511 137.28 243.381 135.976" stroke="#F0F2DA" stroke-miterlimit="10"/>
<path d="M238.15 148.263C241.4 147.377 244.613 146.344 247.771 145.175" stroke="#F0F2DA" stroke-miterlimit="10"/>
<path d="M229.18 137.889C232.319 135.859 235.195 133.422 237.721 130.666" stroke="#F0F2DA" stroke-miterlimit="10"/>
<path d="M237.243 143.95C239.751 142.16 242.51 140.726 245.416 139.698" stroke="#F0F2DA" stroke-miterlimit="10"/>
<path d="M202.079 110.995C194.893 109.66 187.701 108.324 180.515 106.983C179.546 106.805 178.559 106.62 177.584 106.743C176.695 106.854 175.855 107.204 175.028 107.549C167.878 110.558 160.735 113.567 153.586 116.575C162.133 125.036 176.395 142.307 184.378 151.309" stroke="#F0F2DA" stroke-miterlimit="10"/>
<path d="M307.356 103.365C306.332 101.396 304.774 99.7101 302.904 98.5226C302.395 98.2026 301.837 97.9134 301.243 97.9196C300.758 97.9257 300.298 98.1349 299.857 98.338C296.135 100.055 292.413 101.765 288.686 103.482C291.494 104.706 293.64 107.352 294.265 110.355" stroke="#F0F2DA" stroke-miterlimit="10"/>
<path d="M352.005 75.9103C352.998 76.8025 353.985 77.6947 354.979 78.5807" stroke="#F0F2DA" stroke-miterlimit="10"/>
<path d="M343.537 79.9467C344.604 80.9004 345.671 81.8602 346.744 82.814" stroke="#F0F2DA" stroke-miterlimit="10"/>
<path d="M347.216 78.2792C348.436 79.356 349.65 80.4266 350.871 81.5034" stroke="#F0F2DA" stroke-miterlimit="10"/>
<path d="M235.293 127.146C240.928 125.22 246.066 122.101 251.186 119.055C261.897 112.681 272.793 106.491 284.406 101.968" stroke="#F0F2DA" stroke-miterlimit="10"/>
<path d="M297.147 141.957C291.972 136.24 286.233 131.041 280.046 126.451C273.706 128.709 267.367 130.974 261.021 133.232C260.647 133.367 260.254 133.515 260.027 133.835C259.794 134.161 259.788 134.591 259.794 134.998C259.868 145.162 259.948 155.321 260.021 165.486" stroke="#F0F2DA" stroke-miterlimit="10"/>
<path d="M266.717 156.065C273.265 152.46 280.065 149.309 287.042 146.633" stroke="#F0F2DA" stroke-miterlimit="10"/>
<path d="M267.471 147.839C272.057 145.636 276.852 143.876 281.769 142.59" stroke="#F0F2DA" stroke-miterlimit="10"/>
<path d="M264.73 141.114C268.372 139.538 272.198 138.4 276.098 137.723" stroke="#F0F2DA" stroke-miterlimit="10"/>
<path d="M253.927 101.587C265.227 95.1323 277.287 90.0068 289.771 86.3458" stroke="#F0F2DA" stroke-miterlimit="10"/>
<path d="M188.468 76.8579C191.938 75.5411 195.414 74.2244 198.885 72.9076C198.351 75.375 200.424 78.0761 202.938 78.1807" stroke="#F0F2DA" stroke-miterlimit="10"/>
<path d="M207.763 135.151C204.691 133.182 201.963 130.684 199.731 127.792" stroke="#F0F2DA" stroke-miterlimit="10"/>
<path d="M245.287 158.73C248.12 160.619 251.333 161.935 254.675 162.575" stroke="#F0F2DA" stroke-miterlimit="10"/>
<path d="M397.512 108.238C396.029 110.269 394.545 112.305 393.061 114.336C391.614 116.317 390.124 118.341 388.058 119.646C386.016 120.938 383.594 121.418 381.295 122.15C377.009 123.522 373.085 125.823 369.198 128.1" stroke="#F0F2DA" stroke-miterlimit="10"/>
<path d="M320.44 131.909C317.908 129.386 315.382 126.857 312.85 124.334C317.013 126.488 321.513 127.977 326.136 128.728" stroke="#F0F2DA" stroke-miterlimit="10"/>
<path d="M359.59 114.883C357.91 112.355 356.236 109.819 354.556 107.291C356.101 108.33 357.646 109.37 359.191 110.41C359.228 109.315 359.265 108.22 359.301 107.118" stroke="#F0F2DA" stroke-miterlimit="10"/>
<path d="M378.867 177.213C377.714 173.005 375.899 169.011 374.231 164.981C369.976 154.699 366.61 144.012 364.887 133.016" stroke="#F0F2DA" stroke-miterlimit="10"/>
<path d="M275.656 83.6262C256.839 80.6789 238.12 77.1347 219.529 72.9876" stroke="#F0F2DA" stroke-miterlimit="10"/>
<path d="M285.577 157.85C308.637 167.122 332.017 175.614 355.653 183.299" stroke="#F0F2DA" stroke-miterlimit="10"/>
<path d="M182.054 69.7634C184.586 73.8429 187.585 77.6393 190.969 81.0419" stroke="#F0F2DA" stroke-miterlimit="10"/>
<path d="M358.884 80.0143C354.053 81.811 349.184 83.5154 344.292 85.1275" stroke="#F0F2DA" stroke-miterlimit="10"/>
<path d="M436.018 54.0302C439.77 56.2145 442.407 60.2324 442.922 64.558" stroke="#F0F2DA" stroke-miterlimit="10"/>
<path d="M224.956 148.848C204.403 159.363 183.55 169.27 162.421 178.555" stroke="#F0F2DA" stroke-miterlimit="10"/>
<path d="M228.72 157.918C224.03 160.569 219.339 163.215 214.655 165.867C201.264 173.435 187.72 181.065 172.949 185.348" stroke="#F0F2DA" stroke-miterlimit="10"/>
<path d="M224.612 154.81C201.926 163.843 181.006 177.195 157.761 184.658" stroke="#F0F2DA" stroke-miterlimit="10"/>
<path d="M359.412 183.686C341.784 190.424 324.524 198.121 307.718 206.723" stroke="#F0F2DA" stroke-miterlimit="10"/>
<path d="M181.349 71.4924C174.145 74.9012 166.94 78.31 159.736 81.7249C157.203 82.9247 154.665 84.1245 151.998 84.9921C148.675 86.0689 145.21 86.6104 141.82 87.4472C136.706 88.7085 131.758 90.659 127.147 93.2248" stroke="#F0F2DA" stroke-miterlimit="10"/>
<path d="M184.071 75.8857C175.371 78.3469 166.903 81.6387 158.822 85.6997C152.801 88.727 146.903 92.2158 140.354 93.7848" stroke="#F0F2DA" stroke-miterlimit="10"/>
<path d="M350.797 184.142C340.889 187.876 330.98 191.611 321.078 195.34C317.724 196.601 314.266 197.93 311.691 200.435" stroke="#F0F2DA" stroke-miterlimit="10"/>
<path d="M193.937 84.4322C194.366 86.6719 195.807 88.5609 197.156 90.4006C203.606 99.1686 208.885 108.81 212.803 118.975" stroke="#F0F2DA" stroke-miterlimit="10"/>
<path d="M264.792 137.12C265.024 145.365 265.264 153.604 265.497 161.849" stroke="#F0F2DA" stroke-miterlimit="10"/>
<path d="M219.505 172.389C219.505 173.103 219.505 173.817 219.505 174.531C235.25 180.991 250.996 187.458 266.741 193.919C268.244 194.534 269.789 195.162 271.414 195.18C273.118 195.199 274.755 194.546 276.331 193.882C279.893 192.374 283.4 190.731 286.84 188.959C288.287 188.215 289.777 187.397 290.678 186.037C291.58 184.677 291.641 182.622 290.384 181.588" stroke="#F0F2DA" stroke-miterlimit="10"/>
<path d="M152.317 117.24C161.667 131.103 172.299 144.086 184.041 155.979C195.807 150.189 207.978 145.242 220.443 141.175" stroke="#F0F2DA" stroke-miterlimit="10"/>
<path d="M184.776 151.715C184.384 152.3 184.237 153.044 184.39 153.733" stroke="#F0F2DA" stroke-miterlimit="10"/>
<path d="M271.984 192.257C272.229 193.205 272.131 194.239 271.708 195.125" stroke="#F0F2DA" stroke-miterlimit="10"/>
<path d="M285.969 160.705C305.854 168.661 325.848 176.34 345.941 183.742" stroke="#F0F2DA" stroke-miterlimit="10"/>
<path d="M358.854 186.677C367.634 187.753 376.696 186.338 384.741 182.646C384.734 181.385 384.722 180.13 384.716 178.868" stroke="#F0F2DA" stroke-miterlimit="10"/>
<path d="M221.056 146.984C221.774 142.923 227.145 140.954 230.842 142.769C234.533 144.584 236.403 148.977 236.379 153.106C236.366 155.426 235.821 157.825 234.367 159.64C232.914 161.455 230.437 162.532 228.212 161.905" stroke="#F0F2DA" stroke-miterlimit="10"/>
<path d="M385.121 59.5125C390.063 67.0007 399.315 71.394 408.218 70.471C417.121 69.5481 425.288 63.3643 428.605 55.0147C417.39 49.114 404.012 48.8802 392.27 53.6364" stroke="#F0F2DA" stroke-miterlimit="10"/>
</g>
<g opacity="0.3" clip-path="url(#clip3_747_237)">
<path d="M881.569 212.481C907.86 226.598 932.274 243.92 956.61 261.208C974.749 274.088 992.899 286.968 1011.04 299.849C1025.48 290.68 1040.22 280.871 1054.66 271.691C1060.96 267.692 1067.34 263.616 1072.35 258.092C1072.23 274.729 1071.82 291.873 1071.7 308.509" stroke="#F0F2DA" stroke-miterlimit="10"/>
<path d="M1010.6 305.372C1010.68 320.561 1010.78 335.739 1010.87 350.928C1029.33 337.684 1048.41 325.289 1068.02 313.801" stroke="#F0F2DA" stroke-miterlimit="10"/>
<path d="M880.552 216.8C880.806 233.016 881.049 249.233 881.303 265.461" stroke="#F0F2DA" stroke-miterlimit="10"/>
<path d="M883.689 266.267C925.248 291.078 966.43 320.661 1006.07 348.421" stroke="#F0F2DA" stroke-miterlimit="10"/>
<path d="M884.198 210.68C906.733 198.573 929.258 186.477 951.793 174.37C951.793 181.44 951.175 189.769 951.175 196.839" stroke="#F0F2DA" stroke-miterlimit="10"/>
<path d="M929.744 238.639C929.744 229.901 929.755 221.174 929.766 212.437C963.348 193.735 997.041 176.027 1030.62 157.325C1048.03 169.266 1066.07 181.705 1083.47 193.646C1075.57 198.22 1066.45 204.262 1058.55 208.835C1046.2 200.429 1033.25 191.713 1020.91 183.307C1020.91 191.205 1021.41 199.545 1021.41 207.443" stroke="#F0F2DA" stroke-miterlimit="10"/>
<path d="M1014.97 237.148C1002.85 228.498 990.734 219.849 978.604 211.199C969.192 216.513 959.946 222.08 950.534 227.394C971.236 238.683 990.789 252.757 1009.94 266.51C1040.76 247.863 1072.98 229.912 1103.8 211.266" stroke="#F0F2DA" stroke-miterlimit="10"/>
<path d="M949.927 231.15V254.226" stroke="#F0F2DA" stroke-miterlimit="10"/>
<path d="M1015.73 240.495C1015.59 247.145 1015.46 253.806 1015.31 260.456" stroke="#F0F2DA" stroke-miterlimit="10"/>
<path d="M979.201 181.23C979.013 173.331 978.836 165.433 978.648 157.535C996.268 148.465 1013.57 138.833 1031.18 129.774C1031.19 137.463 1031.29 145.483 1031.3 153.171" stroke="#F0F2DA" stroke-miterlimit="10"/>
<path d="M1030.72 161.28C1030.86 168.769 1031 176.259 1031.13 183.737" stroke="#F0F2DA" stroke-miterlimit="10"/>
<path d="M1097.51 292.911C1097.63 276.695 1097.77 260.467 1097.89 244.251C1116.56 232.862 1134.74 220.269 1153.41 208.88" stroke="#F0F2DA" stroke-miterlimit="10"/>
<path d="M1038.46 246.118C1038.57 239.468 1038.62 230.807 1038.73 224.157C1022.03 210.559 1004.91 197.468 987.397 184.93C987.861 194.287 988.093 204.328 988.557 213.674" stroke="#F0F2DA" stroke-miterlimit="10"/>
<path d="M1058.78 233.635C1058.68 226.565 1058.58 219.495 1058.48 212.426" stroke="#F0F2DA" stroke-miterlimit="10"/>
<path d="M1082.21 221.163C1082.17 213.674 1082.11 206.195 1082.07 198.706" stroke="#F0F2DA" stroke-miterlimit="10"/>
<path d="M1033.22 133.066C1071.88 157.623 1110.55 182.18 1149.21 206.737" stroke="#F0F2DA" stroke-miterlimit="10"/>
<path d="M1099.55 292.138C1118.51 279.512 1137.47 266.897 1156.44 254.27C1156.09 239.501 1155.69 226.565 1155.34 211.807" stroke="#F0F2DA" stroke-miterlimit="10"/>
<path d="M1011.2 269.205C1011.18 277.943 1011.17 286.67 1011.15 295.408" stroke="#F0F2DA" stroke-miterlimit="10"/>
<path d="M1104.14 214.933C1103.96 222.213 1103.79 229.493 1103.61 236.772" stroke="#F0F2DA" stroke-miterlimit="10"/>
<path d="M1094.08 269.901C1087.84 273.856 1081.61 277.8 1075.36 281.754" stroke="#F0F2DA" stroke-miterlimit="10"/>
<path d="M1085.55 60.9096C1082.77 52.4921 1079.99 44.0745 1077.21 35.657C1069.74 38.0652 1062.76 41.9536 1056.77 47.024C1060.03 52.9781 1065.45 57.7282 1071.78 60.1806" stroke="#F0F2DA" stroke-miterlimit="10"/>
<path d="M1082.44 40.7385C1082.65 39.0704 1083.34 36.9715 1083.55 35.3035C1090.01 33.9558 1097.2 34.3424 1103.19 37.0931C1101.98 42.9257 1099.46 48.4822 1095.89 53.2433" stroke="#F0F2DA" stroke-miterlimit="10"/>
<path d="M1064.35 59.7608C1060.93 58.1811 1058.38 56.3474 1056.25 52.8898" stroke="#F0F2DA" stroke-miterlimit="10"/>
<path d="M1074.31 41.8652C1070.08 42.3623 1066.01 44.185 1062.84 47.024" stroke="#F0F2DA" stroke-miterlimit="10"/>
<path d="M1075.53 46.1845C1074.15 45.7757 1072.52 46.6263 1072.08 47.9961C1071.64 49.3659 1072.45 51.0119 1073.81 51.4869C1075.16 51.9619 1076.83 51.1886 1077.34 49.852" stroke="#F0F2DA" stroke-miterlimit="10"/>
<path d="M1098.63 41.0919C1097.63 40.0977 1096.2 39.457 1094.81 39.7111C1093.41 39.9541 1092.2 41.2356 1092.29 42.6385C1092.38 44.0414 1094.02 45.2013 1095.29 44.5827" stroke="#F0F2DA" stroke-miterlimit="10"/>
<path d="M1089.92 38.8605C1088.26 39.1698 1086.6 39.4791 1084.93 39.7995" stroke="#F0F2DA" stroke-miterlimit="10"/>
<path d="M1090.91 63.1742C1091.22 64.2126 1091.54 65.251 1091.85 66.2894" stroke="#F0F2DA" stroke-miterlimit="10"/>
<path d="M1086.44 62.5556L1085.5 66.3004" stroke="#F0F2DA" stroke-miterlimit="10"/>
<path d="M1080.88 62.5667C1080.15 63.605 1079.42 64.6434 1078.69 65.6818" stroke="#F0F2DA" stroke-miterlimit="10"/>
<path d="M1076.2 61.6608C1074.77 61.6387 1073.4 62.7323 1073.09 64.1242" stroke="#F0F2DA" stroke-miterlimit="10"/>
<path d="M1087.18 55.4637C1088.55 54.1601 1090.76 53.7183 1092.42 54.6352C1094.08 55.552 1094.86 57.8718 1093.9 59.4957C1092.94 61.1195 1090.28 61.4509 1089.09 59.9817" stroke="#F0F2DA" stroke-miterlimit="10"/>
</g>
<g opacity="0.3" clip-path="url(#clip4_747_237)">
<path d="M756.837 217.564C742.067 211.028 719.529 212.561 705.599 204.736" stroke="#F0F2DA" stroke-miterlimit="10"/>
<path d="M627.218 277.822C635.361 281.203 643.235 286.012 653.351 284.95C663.523 283.879 677.975 277.36 687.178 272.462C697.627 266.899 705.575 249.635 705.599 237.018" stroke="#F0F2DA" stroke-miterlimit="10"/>
<path d="M585.509 214.791C580.227 224.603 576.176 227.117 566.811 231.779" stroke="#F0F2DA" stroke-miterlimit="10"/>
<path d="M568.107 240.691C569.24 242.978 569.639 245.281 569.761 247.6" stroke="#F0F2DA" stroke-miterlimit="10"/>
<path d="M587.433 224.603C586.487 230.271 583.936 236.393 580.227 238.948" stroke="#F0F2DA" stroke-miterlimit="10"/>
<path d="M597.451 224.562C597.149 229.022 596.725 232.931 593.693 237.156" stroke="#F0F2DA" stroke-miterlimit="10"/>
<path d="M581.181 243.221C581.801 245.686 582.942 248.111 584.034 250.527" stroke="#F0F2DA" stroke-miterlimit="10"/>
<path d="M591.949 241.518C593.253 243.91 594.769 246.197 596.253 248.5" stroke="#F0F2DA" stroke-miterlimit="10"/>
<path d="M609.123 243.116C607.558 236.223 608.381 214.532 609.123 211.385" stroke="#F0F2DA" stroke-miterlimit="10"/>
<path d="M611.324 245.013C612.693 242.41 625.849 231.106 629.965 228.876" stroke="#F0F2DA" stroke-miterlimit="10"/>
<path d="M700.252 265.14C707.71 269.875 719.081 267.929 727.811 269.632C735.832 271.197 746.469 272.786 753.585 276.2" stroke="#F0F2DA" stroke-miterlimit="10"/>
<path d="M703.822 262.869C707.792 257.501 710.221 252.295 712.21 245.759" stroke="#F0F2DA" stroke-miterlimit="10"/>
<path d="M562.327 245.013C564.17 241.518 564.911 236.523 563.672 233.401C562.686 230.912 558.285 228.884 555.619 227.255" stroke="#F0F2DA" stroke-miterlimit="10"/>
<path d="M560.241 284.496C558.684 285.996 556.728 287.196 554.348 288.088C552.937 288.615 551.364 287.95 550.769 286.572C550.093 285.015 549.441 283.312 548.813 281.471" stroke="#F0F2DA" stroke-miterlimit="10"/>
<path d="M700.252 201.671C687.365 192.881 670.061 186.369 656.57 176.419C645.591 168.318 621.105 146.213 608.642 157.088C596.513 167.678 585.2 176.314 573.601 186.385C567.21 191.94 556.989 201.663 551.25 206.617C543.058 213.688 541.11 214.248 540.58 225.649C540.426 228.901 540.67 233.669 541.094 238.737" stroke="#F0F2DA" stroke-miterlimit="10"/>
<path d="M621.488 248.978C613.614 248.978 606.066 248.873 598.853 251.03C593.457 252.644 588.289 254.533 582.819 253.974C571.93 252.863 558.725 247.373 548.544 253.341C535.902 260.753 540.499 272.462 554.519 276.046C560.518 277.579 563.803 279.874 569.623 281.017C572.492 281.577 577.872 283.142 581.034 282.477C583.765 281.901 588.965 281.325 591.769 281.017C604.461 279.606 614.829 283.142 627.218 277.83" stroke="#F0F2DA" stroke-miterlimit="10"/>
<path d="M605.194 216.283C598.689 217.297 592.674 216.713 587.302 212.829C586.618 208.92 589.544 200.714 587.84 199.992" stroke="#F0F2DA" stroke-miterlimit="10"/>
<path d="M546.571 250.033C544.55 246.286 539.496 245.167 535.307 246.035C529.756 247.186 524.849 251.257 522.966 256.577C521.083 261.896 522.412 268.27 526.446 272.227C530.481 276.184 537.075 277.392 542.162 274.895" stroke="#F0F2DA" stroke-miterlimit="10"/>
<path d="M550.354 247.413C543.401 240.821 531.337 240.569 524.115 246.862C516.893 253.155 515.557 265.091 521.213 272.811C526.87 280.53 538.697 282.923 546.938 278.017" stroke="#F0F2DA" stroke-miterlimit="10"/>
<path d="M563.126 273.727C562.564 268.748 563.469 263.607 565.718 259.123C560.811 256.633 554.788 256.422 549.718 258.563C547.998 259.293 546.302 260.355 545.463 262.018C544.623 263.68 544.958 266.023 546.58 266.948" stroke="#F0F2DA" stroke-miterlimit="10"/>
<path d="M572.484 286.758C575.035 290.861 578.035 294.697 581.409 298.167C582.779 299.57 584.327 300.981 586.267 301.322C589.471 301.881 592.503 299.165 593.457 296.075C594.41 292.986 593.815 289.661 593.22 286.482" stroke="#F0F2DA" stroke-miterlimit="10"/>
<path d="M596.146 298.727C597.337 300.47 598.559 302.254 600.271 303.503C601.983 304.752 604.289 305.393 606.254 304.606C609.734 303.211 610.24 298.378 609.017 294.851C607.794 291.323 605.422 288.129 605.088 284.407" stroke="#F0F2DA" stroke-miterlimit="10"/>
<path d="M609.27 284.374C611.829 286.288 614.584 288.283 617.788 288.526C620.983 288.769 624.594 286.418 624.398 283.231" stroke="#F0F2DA" stroke-miterlimit="10"/>
<path d="M587.914 274.262C587.726 270.346 587.539 266.429 587.36 262.512" stroke="#F0F2DA" stroke-miterlimit="10"/>
<path d="M584.075 274.797V267.321" stroke="#F0F2DA" stroke-miterlimit="10"/>
<path d="M622.841 227.895C625.303 225.738 627.137 222.884 628.074 219.762" stroke="#F0F2DA" stroke-miterlimit="10"/>
<path d="M565.286 229.387C563.852 227.96 562.425 226.541 560.991 225.114" stroke="#F0F2DA" stroke-miterlimit="10"/>
<path d="M492.407 349.992C493.353 282.331 494.299 214.669 495.236 147" stroke="#F0F2DA" stroke-miterlimit="10"/>
<path d="M498.668 232.931C499.385 231.536 501.667 231.812 502.621 233.052C503.574 234.293 503.591 235.988 503.558 237.553C503.224 255.271 502.882 272.989 502.547 290.699C500.477 290.772 498.415 290.845 496.344 290.91" stroke="#F0F2DA" stroke-miterlimit="10"/>
</g>
<path opacity="0.3" d="M135.017 6.07979C135.857 1.97979 130.047 -1.58021 126.777 1.04979C124.337 6.27979 125.597 13.1198 130.047 16.7998C134.497 20.4698 141.807 20.2498 145.727 16.0098C151.147 10.1298 148.357 0.329788 143.127 -5.71021C138.567 -10.9802 131.717 -15.0002 124.867 -13.7802C113.597 -11.7902 109.167 2.31979 110.127 13.7198C110.497 18.0998 111.347 22.5598 113.657 26.2898C121.007 38.1698 138.227 37.4398 152.027 35.2498" stroke="#F0F2DA" stroke-miterlimit="10"/>
<path opacity="0.3" d="M304.017 560.08C304.857 555.98 299.047 552.42 295.777 555.05C293.337 560.28 294.597 567.12 299.047 570.8C303.497 574.47 310.807 574.25 314.727 570.01C320.147 564.13 317.357 554.33 312.127 548.29C307.567 543.02 300.717 539 293.867 540.22C282.597 542.21 278.167 556.32 279.127 567.72C279.497 572.1 280.347 576.56 282.657 580.29C290.007 592.17 307.227 591.44 321.027 589.25" stroke="#F0F2DA" stroke-miterlimit="10"/>
<path opacity="0.3" d="M1195.08 7.01001C1190.98 6.17001 1187.42 11.98 1190.05 15.25C1195.28 17.69 1202.12 16.43 1205.8 11.98C1209.47 7.53001 1209.25 0.220005 1205.01 -3.69999C1199.13 -9.11999 1189.33 -6.33 1183.29 -1.1C1178.02 3.46001 1174 10.31 1175.22 17.16C1177.21 28.43 1191.32 32.86 1202.72 31.9C1207.1 31.53 1211.56 30.68 1215.29 28.37C1227.17 21.02 1226.44 3.80001 1224.25 -9.99999" stroke="#F0F2DA" stroke-miterlimit="10"/>
<path opacity="0.3" d="M55.0101 221.46C54.1701 225.56 59.9801 229.12 63.2501 226.49C65.6901 221.26 64.4301 214.42 59.9801 210.74C55.5301 207.07 48.2201 207.29 44.3001 211.53C38.8801 217.41 41.6701 227.21 46.9001 233.25C51.4601 238.52 58.3101 242.54 65.1601 241.32C76.4301 239.33 80.8601 225.22 79.9001 213.82C79.5301 209.44 78.6801 204.98 76.3701 201.25C69.0201 189.37 51.8001 190.1 38.0001 192.29" stroke="#F0F2DA" stroke-miterlimit="10"/>
<path opacity="0.3" d="M1491.01 390.46C1490.17 394.56 1495.98 398.12 1499.25 395.49C1501.69 390.26 1500.43 383.42 1495.98 379.74C1491.53 376.07 1484.22 376.29 1480.3 380.53C1474.88 386.41 1477.67 396.21 1482.9 402.25C1487.46 407.52 1494.31 411.54 1501.16 410.32C1512.43 408.33 1516.86 394.22 1515.9 382.82C1515.53 378.44 1514.68 373.98 1512.37 370.25C1505.02 358.37 1487.8 359.1 1474 361.29" stroke="#F0F2DA" stroke-miterlimit="10"/>
<path opacity="0.3" d="M796.881 152.56C796.391 148.48 788.891 150.49 789.191 154.58C789.491 158.67 794.241 160.99 798.341 161.01C799.611 161.01 800.891 160.88 802.071 160.42C805.111 159.23 806.981 155.96 807.301 152.71C808.031 145.11 800.511 138.09 792.901 138.67C785.291 139.25 779.071 146.58 779.001 154.22C778.931 161.86 784.441 168.99 791.601 171.63C802.771 175.74 815.951 169.06 821.661 158.62C827.371 148.18 826.691 135.19 822.651 124" stroke="#F0F2DA" stroke-miterlimit="10"/>
<path opacity="0.3" d="M1333.93 312.298C1334.42 316.378 1341.92 314.368 1341.62 310.278C1341.32 306.188 1336.57 303.868 1332.47 303.848C1331.2 303.848 1329.92 303.978 1328.74 304.438C1325.7 305.628 1323.83 308.898 1323.51 312.148C1322.78 319.748 1330.3 326.768 1337.91 326.188C1345.52 325.608 1351.74 318.278 1351.81 310.638C1351.88 302.998 1346.37 295.868 1339.21 293.228C1328.04 289.118 1314.86 295.798 1309.15 306.238C1303.44 316.678 1304.12 329.668 1308.16 340.858" stroke="#F0F2DA" stroke-miterlimit="10"/>
<path opacity="0.3" d="M814.747 352.149C811.459 354.613 816.949 360.103 820.341 357.799C823.733 355.494 823.368 350.22 821.335 346.66C820.7 345.56 819.947 344.516 818.959 343.724C816.408 341.687 812.641 341.702 809.667 343.05C802.72 346.218 800.401 356.24 804.708 362.541C809.015 368.841 818.473 370.563 825.125 366.803C831.776 363.044 835.196 354.707 833.902 347.187C831.876 335.458 819.501 327.384 807.605 327.659C795.709 327.934 784.799 335.018 777.128 344.111" stroke="#F0F2DA" stroke-miterlimit="10"/>
<path opacity="0.3" d="M1118.56 735.932C1114.48 736.422 1116.49 743.922 1120.58 743.622C1124.67 743.322 1126.99 738.572 1127.01 734.472C1127.01 733.202 1126.88 731.922 1126.42 730.742C1125.23 727.702 1121.96 725.832 1118.71 725.512C1111.11 724.782 1104.09 732.302 1104.67 739.912C1105.25 747.522 1112.58 753.742 1120.22 753.812C1127.86 753.882 1134.99 748.372 1137.63 741.212C1141.74 730.042 1135.06 716.862 1124.62 711.152C1114.18 705.442 1101.19 706.122 1090 710.162" stroke="#F0F2DA" stroke-miterlimit="10"/>
<g opacity="0.3" clip-path="url(#clip5_747_237)">
<path d="M1604.1 103.57C1585.98 95.51 1557.71 91.54 1540.61 81.9C1528.72 75.19 1471.67 60.7 1458.58 56.44C1422.16 44.57 1436.13 40.48 1400.24 45.79C1387.5 47.67 1361.48 53.44 1349.13 56.43C1339.3 58.81 1322.84 59.98 1314.82 66.78C1305.74 74.48 1301.43 89.76 1294.57 98.82C1287.7 107.91 1279.22 119.49 1280.34 131.4C1282.71 156.51 1324.48 128.31 1314.61 108.14C1313.5 105.87 1311.55 104.07 1309.17 103.34" stroke="#F0F2DA" stroke-miterlimit="10"/>
<path d="M1318.24 112.12C1328.94 104.84 1344.04 94.85 1333.59 81.32" stroke="#F0F2DA" stroke-miterlimit="10"/>
<path d="M1341.48 90.75C1355.2 93.45 1374.32 88.08 1385.44 80.42" stroke="#F0F2DA" stroke-miterlimit="10"/>
<path d="M1385.85 84.69C1391.65 88.17 1400.23 92.38 1407.21 93.56" stroke="#F0F2DA" stroke-miterlimit="10"/>
<path d="M1342.93 95.47C1329.81 103.95 1333.85 124.53 1337.35 137.67C1339.41 145.39 1338.37 158.55 1345.53 162.53" stroke="#F0F2DA" stroke-miterlimit="10"/>
<path d="M1437.65 142.27C1422.57 149.15 1404.56 152.48 1389.29 158.98" stroke="#F0F2DA" stroke-miterlimit="10"/>
<path d="M1387.17 157.34C1379.03 154.08 1360.81 144.88 1353.11 156.47C1346.6 166.28 1360 180.89 1368.04 184.17C1373.07 186.22 1377.97 193.25 1383.3 194.48C1389.25 195.85 1398.99 191.21 1404.95 189.27C1416.24 185.6 1427.49 182.01 1439.19 179.49C1451.8 176.77 1463.89 173.12 1476.3 171.81C1488.78 170.49 1503.3 168.99 1514.59 162.95C1527.41 156.09 1541.21 143.12 1541.24 127.56" stroke="#F0F2DA" stroke-miterlimit="10"/>
<path d="M1366.16 176.41C1368.79 170.02 1370.89 165.75 1376.73 161.69C1370.46 155.88 1359.85 154.64 1355.77 163.45" stroke="#F0F2DA" stroke-miterlimit="10"/>
<path d="M1382.82 92.45C1381.1 107.16 1370.33 110.84 1357.81 113.75" stroke="#F0F2DA" stroke-miterlimit="10"/>
<path d="M1362.74 117.8C1364.61 126.04 1360.16 132.9 1359.71 140.88" stroke="#F0F2DA" stroke-miterlimit="10"/>
<path d="M1392.77 95.16C1392.22 103.09 1385.35 116.21 1377.7 119.17" stroke="#F0F2DA" stroke-miterlimit="10"/>
<path d="M1403.86 102.17C1401.4 109.46 1400.49 115.47 1394.28 120.87" stroke="#F0F2DA" stroke-miterlimit="10"/>
<path d="M1377.61 124.57C1377.66 130.17 1379.76 136.07 1379.88 141.63" stroke="#F0F2DA" stroke-miterlimit="10"/>
<path d="M1390.95 125.6C1392.75 132.3 1395.75 138.71 1397.05 145.47" stroke="#F0F2DA" stroke-miterlimit="10"/>
<path d="M1426.49 120.68C1424.57 112.18 1421.18 103.22 1417.43 95.46C1415.66 91.8 1413.36 87.5 1410.67 84.6" stroke="#F0F2DA" stroke-miterlimit="10"/>
<path d="M1421.51 143.68C1424.83 139.83 1428.02 132.77 1429.58 127.92C1431.15 123.02 1431.81 117.27 1431.86 112.11" stroke="#F0F2DA" stroke-miterlimit="10"/>
<path d="M1383.19 188.36C1382.61 183.52 1383.37 179.62 1385.39 175.1" stroke="#F0F2DA" stroke-miterlimit="10"/>
<path d="M1388 190.52C1388.88 188.19 1386.84 185.23 1387.06 182.71" stroke="#F0F2DA" stroke-miterlimit="10"/>
<path d="M1401.59 116.6C1407.15 120.91 1412.14 123.71 1418.35 123.24" stroke="#F0F2DA" stroke-miterlimit="10"/>
<path d="M1289.31 163.28C1285 163.33 1269.45 161.93 1265.67 163.66C1264.05 164.4 1260.14 169.71 1253.88 179.33C1270.21 179.14 1286.36 180.33 1302.34 179.37C1299.44 175.86 1296.11 168.83 1293.09 165.59" stroke="#F0F2DA" stroke-miterlimit="10"/>
<path d="M1302.58 181.81C1303.36 183.39 1304.12 185.14 1304.92 186.77C1305.62 188.18 1306.41 190.19 1306.69 191.52" stroke="#F0F2DA" stroke-miterlimit="10"/>
<path d="M1220 176.66C1223.37 176.64 1226.69 176.94 1230.05 177.07C1233.08 177.19 1236.25 177.34 1239.28 177.62C1242.31 177.9 1242.92 177.63 1244.67 175.44C1248.02 171.27 1252 167.54 1255.34 163.33C1249.03 163.4 1241.85 161.82 1235.7 162.62" stroke="#F0F2DA" stroke-miterlimit="10"/>
<path d="M1312.59 178.46C1310.91 176.82 1305.09 165.57 1303.78 163.69C1307.66 161.97 1315.77 162.38 1320.34 162.32" stroke="#F0F2DA" stroke-miterlimit="10"/>
<path d="M1336.39 178.13C1329.52 178.21 1319.5 178.5 1312.56 178.49" stroke="#F0F2DA" stroke-miterlimit="10"/>
<path d="M1242.62 180.63C1241.55 184.48 1242.83 189.66 1241.35 193.1" stroke="#F0F2DA" stroke-miterlimit="10"/>
<path d="M1312.21 181.23C1312.26 185.17 1312.07 189.11 1311.88 192.99" stroke="#F0F2DA" stroke-miterlimit="10"/>
<path d="M1255.29 163.26C1255.45 165.27 1255.66 167.82 1256.42 169.59" stroke="#F0F2DA" stroke-miterlimit="10"/>
<path d="M1303.78 163.58C1303.72 165.89 1301.52 168.11 1301.57 170.48" stroke="#F0F2DA" stroke-miterlimit="10"/>
<path d="M1305.78 194.47C1286.43 194.69 1267.3 193.74 1247.94 193.96C1249.42 190.46 1251.1 186.92 1252.52 183.33" stroke="#F0F2DA" stroke-miterlimit="10"/>
<path d="M1289.14 112.04C1290.48 114.3 1292.98 115.34 1295.65 115.4C1295.05 121.82 1291.38 129.29 1285.85 132.72" stroke="#F0F2DA" stroke-miterlimit="10"/>
</g>
<g opacity="0.3" clip-path="url(#clip6_747_237)">
<path d="M127.755 520.235C129.339 516.02 131.199 511.466 135.139 509.276C139.768 506.706 145.513 508.309 150.544 509.975C166.084 515.102 177.73 518.792 193.277 523.923C198.184 525.542 204.203 528.981 209.138 530.523C216.144 532.736 220.467 534.493 221.707 540.261C222.947 546.029 221.08 551.961 219.24 557.557C211.187 582.023 188.978 636.532 180.538 660.871" stroke="#F0F2DA" stroke-miterlimit="10"/>
<path d="M115.674 554.376C103.359 585.758 90.9886 617.173 79.1411 648.729C74.396 661.358 67.938 672.997 67.8046 683.439C67.7207 690.457 89.1572 695.945 95.6621 698.6C115.496 706.685 129.389 711.74 149.752 718.377C152.105 719.145 155.457 720.85 157.644 719.681C160.436 718.197 161.808 712.86 161.582 712.776C165.488 701.905 169.208 691.797 173.114 680.926" stroke="#F0F2DA" stroke-miterlimit="10"/>
<path d="M214.686 535.945L217.159 537.368L217.995 541.173L216.809 544.722L160.969 703.057L158.059 709.221L152.313 712.579L148.766 712.712L87.7535 689.664" stroke="#F0F2DA" stroke-miterlimit="10"/>
<path d="M80.2698 686.831L77.1657 684.413L75.4087 680.514L75.4833 677.047L137.093 516.362L138.08 513.73L141.334 511.693L145.339 511.686L157.859 516.337L158.958 523.486L197.961 537.224L201.722 531.129L208.352 533.592" stroke="#F0F2DA" stroke-miterlimit="10"/>
<path d="M209.625 594.569C214.894 591.945 220.039 589.062 225.026 585.935C226.941 584.736 228.939 583.364 229.74 581.255C230.913 578.17 228.934 574.605 226.125 572.871C223.315 571.137 219.898 570.779 216.612 570.469" stroke="#F0F2DA" stroke-miterlimit="10"/>
<path d="M-27.935 660.431C-16.8195 656.325 -23.4382 658.457 -7.15247 651.327C1.65677 647.47 11.4603 645.204 18.703 638.889C29.7492 629.274 31.8411 613.156 38.8185 600.286C42.3411 593.783 47.1496 588.086 51.9223 582.438C59.6188 573.329 67.3154 564.22 75.0119 555.112C76.8579 552.931 78.7339 550.718 81.1085 549.141C83.3057 547.684 85.8324 546.818 88.327 545.967C95.7652 543.441 103.196 540.912 110.634 538.385C111.973 537.928 113.83 537.768 115.039 537.041C115.677 536.659 116.281 536.176 117.012 535.996C118.495 535.627 119.935 536.613 121.151 537.534" stroke="#F0F2DA" stroke-miterlimit="10"/>
<path d="M102.942 570.937C93.7755 576.421 83.4078 584.449 80.2622 594.656C80.121 595.108 82.9505 598.742 83.0744 599.195C83.1964 599.63 84.9812 600.594 85.3174 600.904C87.1543 602.586 90.1102 603.401 92.433 604.3" stroke="#F0F2DA" stroke-miterlimit="10"/>
<path d="M202.056 613.129C203.658 613.918 205.4 614.45 206.829 615.512C210.094 617.928 210.926 622.386 211.516 626.4C211.783 628.206 212.029 630.12 211.323 631.804C210.673 633.34 209.33 634.451 208.032 635.49C206.127 637.02 204.221 638.55 202.326 640.076" stroke="#F0F2DA" stroke-miterlimit="10"/>
<path d="M192.937 637.056C195.38 636.867 197.509 638.861 198.513 641.092C199.517 643.322 199.714 645.819 200.341 648.184C201.115 651.081 202.569 654.009 201.882 656.93C200.651 662.222 193.385 663.999 191.429 669.074" stroke="#F0F2DA" stroke-miterlimit="10"/>
<path d="M181.648 665.892C184.574 667.121 185.24 670.835 186.383 673.79C187.597 676.957 189.811 680.221 188.747 683.443C187.59 686.914 183.399 688.09 180.407 690.208C177.136 692.531 174.895 696.439 171.07 697.654" stroke="#F0F2DA" stroke-miterlimit="10"/>
<path d="M76.6117 593.566C72.6678 593.003 68.7239 592.44 64.7799 591.877" stroke="#F0F2DA" stroke-miterlimit="10"/>
<path d="M77.3573 597.089C74.8601 596.612 72.2686 596.676 69.7984 597.27" stroke="#F0F2DA" stroke-miterlimit="10"/>
<path d="M94.9215 572.336L88.5544 564.256" stroke="#F0F2DA" stroke-miterlimit="10"/>
<path d="M-2.68249 729.751C9.09303 728.898 13.0791 728.99 24.4583 725.866C32.5242 723.653 40.5861 720.854 48.9518 720.813C57.7274 720.765 66.3298 723.758 75.0998 723.486C90.2843 723.015 111.871 715.776 127.061 716.218" stroke="#F0F2DA" stroke-miterlimit="10"/>
<path d="M186.714 679.786C184.811 678.805 183.262 677.16 182.385 675.206C181.508 673.253 181.316 671.005 181.856 668.932" stroke="#F0F2DA" stroke-miterlimit="10"/>
<path d="M193.997 638.803C196.312 641.866 197.36 645.864 196.843 649.662C197.574 650.411 198.259 651.214 198.887 652.049" stroke="#F0F2DA" stroke-miterlimit="10"/>
<path d="M204.135 615.423C205.147 616.656 206.178 617.933 206.718 619.434C207.727 622.25 206.855 625.358 205.979 628.217C206.71 628.489 207.439 628.769 208.167 629.048" stroke="#F0F2DA" stroke-miterlimit="10"/>
<path d="M16.1362 653.593C16.7715 659.844 17.4097 666.087 18.0449 672.338C18.832 680.087 20.2424 688.9 26.7945 693.121" stroke="#F0F2DA" stroke-miterlimit="10"/>
<path d="M6.49048 654.052C7.60886 658.12 8.72725 662.189 9.84563 666.258" stroke="#F0F2DA" stroke-miterlimit="10"/>
<path d="M50.9814 675.402C54.112 673.911 57.2378 672.41 60.3684 670.919C61.7669 670.253 63.1683 669.58 64.4701 668.745C65.6323 668.001 66.7124 667.119 67.6834 666.127" stroke="#F0F2DA" stroke-miterlimit="10"/>
<path d="M56.6533 717.482C56.0847 713.388 56.3336 709.19 57.3662 705.195" stroke="#F0F2DA" stroke-miterlimit="10"/>
<path d="M44.8826 717.488C44.3519 714.531 44.3075 711.48 44.7539 708.515" stroke="#F0F2DA" stroke-miterlimit="10"/>
</g>
<g opacity="0.3">
<path d="M749.754 33.2914C757.236 6.94043 768.02 -26.9627 775.446 -53.1889L741.03 -83.1907" stroke="#F0F2DA" stroke-miterlimit="10"/>
<path d="M750.122 36.9409C771.427 43.0014 792.741 49.0571 814.046 55.1176C821.899 25.4837 831.678 -3.73517 839.533 -33.3756" stroke="#F0F2DA" stroke-miterlimit="10"/>
<path d="M752.314 40.1572L815.93 58.3325C824.523 27.7753 833.853 -2.93507 842.453 -33.4905" stroke="#F0F2DA" stroke-miterlimit="10"/>
<path d="M824.306 2.61742C822.64 2.23196 770.79 -12.0888 769.13 -12.4725" stroke="#F0F2DA" stroke-miterlimit="10"/>
<path d="M822.989 7.36256C821.186 6.93915 769.614 -7.29742 767.811 -7.72082" stroke="#F0F2DA" stroke-miterlimit="10"/>
<path d="M821.345 13.2858C819.562 12.7908 768.008 -1.51086 766.223 -1.99935" stroke="#F0F2DA" stroke-miterlimit="10"/>
<path d="M820.039 17.9919C818.679 17.6143 766.274 3.06945 764.92 2.69368" stroke="#F0F2DA" stroke-miterlimit="10"/>
<path d="M818.95 21.9169C817.498 21.591 765.217 7.15752 763.771 6.83347" stroke="#F0F2DA" stroke-miterlimit="10"/>
<path d="M817.81 26.0241L762.691 10.7259" stroke="#F0F2DA" stroke-miterlimit="10"/>
<path d="M816.737 29.8905C814.878 29.3886 763.466 15.1332 761.607 14.6314" stroke="#F0F2DA" stroke-miterlimit="10"/>
<path d="M815.729 33.5225C812.845 32.7222 762.033 18.8576 760.548 18.4457" stroke="#F0F2DA" stroke-miterlimit="10"/>
<path d="M739.286 -79.3842L712.665 7.69333L746.634 34.0239" stroke="#F0F2DA" stroke-miterlimit="10"/>
</g>
<g opacity="0.3" clip-path="url(#clip7_747_237)">
<path d="M609.986 672.061L612.841 678.286C613.677 680.104 615.75 680.991 617.644 680.344C709.817 648.834 815.073 614.407 908.1 585.488" stroke="#F0F2DA" stroke-miterlimit="10"/>
<path d="M655.872 625.537C721.299 604.156 786.718 582.783 852.145 561.401C852.367 561.33 852.59 561.25 852.821 561.179" stroke="#F0F2DA" stroke-miterlimit="10"/>
<path d="M657.509 621.165C722.002 600.094 786.504 579.023 850.998 557.951C851.22 557.88 851.442 557.809 851.665 557.739" stroke="#F0F2DA" stroke-miterlimit="10"/>
<path d="M650.073 632.18C721.397 608.82 792.722 585.461 864.046 562.093" stroke="#F0F2DA" stroke-miterlimit="10"/>
<path d="M639.507 643.753C716.488 618.114 793.469 592.476 870.459 566.846" stroke="#F0F2DA" stroke-miterlimit="10"/>
<path d="M872.78 566.066C865.54 563.139 858.309 560.213 851.069 557.286" stroke="#F0F2DA" stroke-miterlimit="10"/>
<path d="M758.3 605.025C755.783 599.411 753.266 593.806 750.749 588.193" stroke="#F0F2DA" stroke-miterlimit="10"/>
<path d="M649.869 639.753C655.677 633.324 660.693 626.362 664.793 619.046" stroke="#F0F2DA" stroke-miterlimit="10"/>
<path d="M639.773 643.123C645.581 636.694 650.598 629.732 654.698 622.416" stroke="#F0F2DA" stroke-miterlimit="10"/>
<path d="M668.538 634.344C671.589 628.623 673.581 622.513 674.391 616.385" stroke="#F0F2DA" stroke-miterlimit="10"/>
<path d="M744.087 609.069C743.34 604.067 742.006 599.172 740.111 594.498" stroke="#F0F2DA" stroke-miterlimit="10"/>
<path d="M729.127 614.736C728.646 609.619 728.166 604.501 727.695 599.384" stroke="#F0F2DA" stroke-miterlimit="10"/>
<path d="M710.511 620.97C711.213 615.684 711.925 610.399 712.628 605.122" stroke="#F0F2DA" stroke-miterlimit="10"/>
<path d="M693.825 626.477C697.285 621.325 699.579 615.622 700.522 609.84" stroke="#F0F2DA" stroke-miterlimit="10"/>
<path d="M678.002 631.798C680.27 626.114 681.782 620.243 682.502 614.363" stroke="#F0F2DA" stroke-miterlimit="10"/>
<path d="M759.305 586.685C762.045 591.084 764.793 595.491 767.533 599.89" stroke="#F0F2DA" stroke-miterlimit="10"/>
<path d="M770.246 584.494C773.456 589.186 776.667 593.877 779.869 598.56" stroke="#F0F2DA" stroke-miterlimit="10"/>
<path d="M781.239 580.787C784.423 584.556 787.599 588.326 790.783 592.103" stroke="#F0F2DA" stroke-miterlimit="10"/>
<path d="M843.402 560.931C848.098 563.964 852.785 566.997 857.482 570.03" stroke="#F0F2DA" stroke-miterlimit="10"/>
<path d="M827.89 566.589C831.866 569.64 835.842 572.691 839.817 575.741" stroke="#F0F2DA" stroke-miterlimit="10"/>
<path d="M813.597 571.99C815.883 575.582 818.177 579.165 820.463 582.756" stroke="#F0F2DA" stroke-miterlimit="10"/>
<path d="M799.179 576.043C801.118 580.309 803.564 584.317 806.41 587.918" stroke="#F0F2DA" stroke-miterlimit="10"/>
<path d="M654.067 617.201C638.039 574.766 622.848 532.011 608.51 488.973C608.038 487.554 607.558 486.038 607.896 484.574C608.537 481.852 611.587 480.566 614.256 479.697C680.43 457.969 746.613 436.233 812.796 414.505C819.111 420.261 822.135 428.668 824.946 436.73C837.63 473.134 850.322 509.548 863.005 545.952" stroke="#F0F2DA" stroke-miterlimit="10"/>
<path d="M618.347 492.334L655.534 601.912L851.825 538.867L812.939 426.646L626.93 489.434" stroke="#F0F2DA" stroke-miterlimit="10"/>
<path d="M609.969 671.041C620.553 657.552 634.161 636.951 645.537 624.118" stroke="#F0F2DA" stroke-miterlimit="10"/>
<path d="M908.411 584.486C908.98 580.424 908.117 576.185 906.009 572.664C888.977 578.127 846.995 594.445 840.084 595.385" stroke="#F0F2DA" stroke-miterlimit="10"/>
<path d="M859.928 549.571C869.489 554.502 889.35 562.084 899.419 565.871" stroke="#F0F2DA" stroke-miterlimit="10"/>
<path d="M659.057 613.521C726.067 592.192 793.077 570.873 860.097 549.544" stroke="#F0F2DA" stroke-miterlimit="10"/>
<path d="M611.907 672.07C682.022 649.118 757.624 624.349 827.739 601.398" stroke="#F0F2DA" stroke-miterlimit="10"/>
<path d="M717.582 450.759C717.093 451.442 716.345 451.939 715.527 452.125C715.607 453.748 717.733 454.848 719.112 453.987C720.49 453.118 720.401 450.733 718.969 449.961C718.195 449.908 717.422 449.864 716.648 449.81" stroke="#F0F2DA" stroke-miterlimit="10"/>
<path d="M727.899 617.485L801.625 593.221L814.388 601.726L723.123 631.834L727.899 617.485Z" stroke="#F0F2DA" stroke-miterlimit="10"/>
<path d="M638.199 631.311C627.33 634.095 616.559 637.288 605.93 640.888" stroke="#F0F2DA" stroke-miterlimit="10"/>
<path d="M870.476 554.404C879.78 551.557 888.923 548.178 897.835 544.285" stroke="#F0F2DA" stroke-miterlimit="10"/>
<path d="M631.795 640.826C628.78 642.352 625.462 643.283 622.083 643.549" stroke="#F0F2DA" stroke-miterlimit="10"/>
<path d="M878.019 556.914C880.207 556.195 890.409 553.065 886.646 554.04" stroke="#F0F2DA" stroke-miterlimit="10"/>
<path d="M615.741 661.578C612.005 662.829 608.261 664.07 604.525 665.321" stroke="#F0F2DA" stroke-miterlimit="10"/>
<path d="M893.851 564.071C900.753 561.765 907.655 559.468 914.557 557.162" stroke="#F0F2DA" stroke-miterlimit="10"/>
<path d="M431.422 472.425C430.969 478.375 430.515 484.317 430.062 490.268C413.874 489.284 397.695 488.299 381.507 487.306C382.432 481.4 383.366 475.493 384.291 469.578C395.542 470.35 406.74 469.543 417.992 470.314" stroke="#F0F2DA" stroke-miterlimit="10"/>
<path d="M504.508 611.357C511.694 608.492 518.881 605.628 526.068 602.763C518.908 594.383 512.682 583.874 505.522 575.493C498.815 577.639 491.94 579.448 485.225 581.594C489.681 589.062 496.191 601.868 500.754 607.916" stroke="#F0F2DA" stroke-miterlimit="10"/>
<path d="M528.282 607.206V617.236C526.583 618.088 524.894 618.842 523.186 619.693" stroke="#F0F2DA" stroke-miterlimit="10"/>
<path d="M485.171 586.428V600.041C491.175 609.104 497.401 618.416 502.417 626.548C506.002 625.342 510.351 624.251 513.936 623.045" stroke="#F0F2DA" stroke-miterlimit="10"/>
<path d="M382.076 489.629C382.076 492.494 382.076 495.358 382.076 498.223C398.362 499.136 414.647 499.411 430.942 500.316C430.942 498.17 430.942 496.068 430.942 493.922" stroke="#F0F2DA" stroke-miterlimit="10"/>
<path d="M503.387 623.435V614.842" stroke="#F0F2DA" stroke-miterlimit="10"/>
<path d="M1002.5 576.619C998.663 582.348 994.829 588.086 990.996 593.815C1002.26 598.595 1017.23 606.408 1028.49 611.188C1032.33 605.938 1035.98 600.014 1039.83 594.773C1031.3 590.551 1016.86 583.075 1008.47 579.253" stroke="#F0F2DA" stroke-miterlimit="10"/>
<path d="M990.435 595.961C990.311 599.065 990.177 602.169 990.053 605.282C1001.7 612.102 1017.44 619.924 1029.8 625.342C1033.96 620.722 1038.32 616.119 1041.52 610.789C1041.2 606.648 1041.28 602.559 1040.96 598.418" stroke="#F0F2DA" stroke-miterlimit="10"/>
<path d="M1029.39 620.872C1029.39 619.046 1029.39 617.21 1029.39 615.383" stroke="#F0F2DA" stroke-miterlimit="10"/>
<path d="M1053.76 474.447C1058.31 480.424 1062.85 486.393 1067.41 492.37C1079.21 485.878 1092.14 480.38 1104.93 474.686C1101.34 468.718 1097.66 462.466 1094.06 456.497C1084.72 460.781 1073.14 464.186 1063.79 468.47" stroke="#F0F2DA" stroke-miterlimit="10"/>
<path d="M1105.56 478.712V490.179C1093.89 494.285 1080.1 501.123 1068.43 505.229C1068.42 502.524 1067.79 499.881 1067.77 497.176" stroke="#F0F2DA" stroke-miterlimit="10"/>
<path d="M1052.64 478.234C1052.56 481.417 1052.48 484.601 1052.4 487.785" stroke="#F0F2DA" stroke-miterlimit="10"/>
<path d="M1065.05 502.852C1062.42 500.307 1059.78 497.753 1057.15 495.208" stroke="#F0F2DA" stroke-miterlimit="10"/>
<path d="M891.369 557.916C899.143 555.77 905.182 549.677 910.057 543.274C914.931 536.862 919.12 529.83 925.115 524.438C931.11 519.046 939.559 515.481 947.28 517.813C956.734 520.669 961.724 531.098 963.201 540.835C964.677 550.573 963.832 560.709 966.892 570.074C969.951 579.431 978.917 588.122 988.594 586.171" stroke="#F0F2DA" stroke-miterlimit="10"/>
<path d="M639.916 623.294C623.275 625.422 607.692 612.731 600.576 597.584C593.461 582.437 592.785 565.215 591.415 548.542C590.045 531.869 587.572 514.461 577.7 500.945C563.166 481.045 536.056 474.491 511.374 475.289C486.692 476.087 462.437 482.721 437.746 482.96" stroke="#F0F2DA" stroke-miterlimit="10"/>
<path d="M616.159 654.625C609.693 657.047 601.679 654.297 598.077 648.418C593.772 641.403 595.159 630.911 588.391 626.211C583.872 623.072 577.459 624.207 572.888 627.258C568.316 630.308 565.07 634.92 561.574 639.168C558.087 643.416 553.978 647.557 548.677 649.038C540.485 651.335 531.635 646.404 526.744 639.461C521.852 632.517 520.046 623.932 518.338 615.613" stroke="#F0F2DA" stroke-miterlimit="10"/>
<path d="M871.01 547.07C889.911 532.552 890.115 502.764 907.762 486.747C920.632 475.068 940.031 473.542 957.099 476.948C974.167 480.362 990.097 487.962 1006.91 492.458C1023.72 496.955 1042.69 498.019 1057.58 489.018" stroke="#F0F2DA" stroke-miterlimit="10"/>
</g>
<g opacity="0.3" clip-path="url(#clip8_747_237)">
<path d="M40.3813 336.11C36.918 331.409 35.6023 326.31 33.8599 320.586" stroke="#F0F2DA" stroke-miterlimit="10"/>
<path d="M90.8315 323.938C95.9733 325.664 106.456 331.643 111.918 332.361C117.991 333.156 131.475 336.472 137.42 337.374C147.248 338.866 150.065 336.856 159.644 335.691C168.882 334.569 173.064 334.065 173.832 339.448C175.14 348.58 167.794 353.509 162.851 355.49C154.303 358.913 149.012 359.914 139.817 358.977C135.279 358.508 124.015 358.586 119.748 358.032C113.724 357.251 104.806 356.832 99.7353 356.612C99.7353 356.612 89.2172 360.496 85.2133 360.567C72.6328 360.802 61.9155 358.721 52.6845 352.358C48.2682 349.312 48.1473 341.983 45.324 336.508C44.0936 334.115 41.825 331.317 41.3059 328.753" stroke="#F0F2DA" stroke-miterlimit="10"/>
<path d="M144.646 318.122C160.483 322.589 156.693 322.333 173.562 325.273C189.776 328.1 220.541 332.006 236.82 335.762C242.488 337.069 255.531 338.148 255.794 345.008C256.135 353.956 245.418 356.307 239.216 356.442C224.168 356.775 221.956 353.012 221.956 347.891" stroke="#F0F2DA" stroke-miterlimit="10"/>
<path d="M219.745 353.012C210.848 353.012 201.276 353.601 193.239 350.001" stroke="#F0F2DA" stroke-miterlimit="10"/>
<path d="M171.151 337.374C169.778 340.414 168.427 342.359 165.412 343.986C162.396 345.612 160.305 345.612 157.297 346.322C155.676 343.716 154.588 341.621 154.282 338.574" stroke="#F0F2DA" stroke-miterlimit="10"/>
<path d="M252.679 342.878C246.563 342.878 240.589 342.707 235.212 340.47" stroke="#F0F2DA" stroke-miterlimit="10"/>
<path d="M262.315 351.897C265.857 350.114 272.236 343.552 267.756 337.758C264.74 333.852 255.445 333.561 251.143 332.666C245.475 331.487 239.529 330.805 233.698 329.662C222.184 327.404 195.729 324.968 184.4 321.126C174.415 317.746 162.261 314.202 151.871 311.504C142.299 309.018 130.55 303.905 121.149 300.674C101.812 294.027 82.959 287.465 62.7263 284.632C53.4598 283.332 44.0155 286.805 35.3037 288.872C23.4628 291.677 -3.8816 295.803 -15.9928 295.462" stroke="#F0F2DA" stroke-miterlimit="10"/>
<path d="M265.928 339.263C263.375 339.526 261.007 340.144 258.703 339.263" stroke="#F0F2DA" stroke-miterlimit="10"/>
<path d="M94.0458 323.938C97.8292 324.556 101.463 324.414 105.09 325.174C108.241 325.842 112.124 327.354 115.331 327.148" stroke="#F0F2DA" stroke-miterlimit="10"/>
<path d="M52.6773 291.052C55.4295 290.476 59.341 291.3 61.51 289.852" stroke="#F0F2DA" stroke-miterlimit="10"/>
<path d="M138.622 339.576C137.697 341.053 137.626 342.892 137.42 344.788" stroke="#F0F2DA" stroke-miterlimit="10"/>
<path d="M133.402 345.995C133.423 344.042 133.75 342.168 134.206 340.378" stroke="#F0F2DA" stroke-miterlimit="10"/>
<path d="M180.389 329.548C179.528 330.777 179.18 333.085 178.781 334.363" stroke="#F0F2DA" stroke-miterlimit="10"/>
<path d="M175.972 332.361C176.2 330.905 176.506 329.463 177.174 328.348" stroke="#F0F2DA" stroke-miterlimit="10"/>
<path d="M44.25 340.378C35.8227 338.333 25.9944 339.128 17.2541 339.98C6.50838 341.024 -5.43924 341.28 -15.5876 344.788" stroke="#F0F2DA" stroke-miterlimit="10"/>
<path d="M275.97 347.082C292.042 347.082 282.299 347.224 298.058 346.684C302.93 350.199 307.887 361.604 312.111 365.645C284.504 365.645 282.484 365.645 254.279 365.645C223.784 365.645 209.952 365.112 179.713 365.112C180.396 362.002 181.69 357.393 183.191 354.95" stroke="#F0F2DA" stroke-miterlimit="10"/>
<path d="M189.221 342.388C189.449 344.596 189.627 346.791 190.274 348.836C185.858 349.83 181 349.61 176.371 349.61" stroke="#F0F2DA" stroke-miterlimit="10"/>
<path d="M89.8287 305.489C97.4098 305.184 104.792 306.306 111.512 309.096" stroke="#F0F2DA" stroke-miterlimit="10"/>
<path d="M125.373 307.896C111.868 303.131 112.117 303.081 98.8676 299.474" stroke="#F0F2DA" stroke-miterlimit="10"/>
</g>
<g opacity="0.3" clip-path="url(#clip9_747_237)">
<path d="M552.6 379.02C552.88 379.96 553.17 380.9 553.45 381.84" stroke="#F0F2DA" stroke-miterlimit="10"/>
<path d="M548.57 378.46L547.72 381.85" stroke="#F0F2DA" stroke-miterlimit="10"/>
<path d="M543.53 378.47C542.87 379.41 542.21 380.35 541.55 381.29" stroke="#F0F2DA" stroke-miterlimit="10"/>
<path d="M539.29 377.65C537.99 377.63 536.75 378.62 536.47 379.88" stroke="#F0F2DA" stroke-miterlimit="10"/>
<path d="M549.24 372.04C550.48 370.86 552.48 370.46 553.98 371.29C555.48 372.12 556.19 374.22 555.32 375.69C554.45 377.16 552.04 377.46 550.97 376.13" stroke="#F0F2DA" stroke-miterlimit="10"/>
<path d="M547.35 375.57C542.33 379.21 538.77 384.81 537.6 390.91C530.69 389.39 524.14 385.15 520.6 379.03C525.66 372.49 534.6 369.03 542.54 371.34" stroke="#F0F2DA" stroke-miterlimit="10"/>
<path d="M537.24 368.34C532.34 367.74 527.26 368.64 522.85 370.87" stroke="#F0F2DA" stroke-miterlimit="10"/>
<path d="M555.86 369.67C558.21 368.97 560.87 369.37 562.92 370.72C564.97 372.07 566.37 374.36 566.65 376.8C564.01 376.44 561.34 376.33 558.7 375.97" stroke="#F0F2DA" stroke-miterlimit="10"/>
<path d="M542.88 368C547.59 366.47 552.68 366.1 557.56 366.93" stroke="#F0F2DA" stroke-miterlimit="10"/>
</g>
<g opacity="0.3" clip-path="url(#clip10_747_237)">
<path d="M340.61 255.02C340.33 255.96 340.04 256.9 339.76 257.84" stroke="#F0F2DA" stroke-miterlimit="10"/>
<path d="M344.64 254.46L345.49 257.85" stroke="#F0F2DA" stroke-miterlimit="10"/>
<path d="M349.68 254.47C350.34 255.41 351 256.35 351.66 257.29" stroke="#F0F2DA" stroke-miterlimit="10"/>
<path d="M353.92 253.65C355.22 253.63 356.46 254.62 356.74 255.88" stroke="#F0F2DA" stroke-miterlimit="10"/>
<path d="M343.97 248.04C342.73 246.86 340.73 246.46 339.23 247.29C337.73 248.12 337.02 250.22 337.89 251.69C338.76 253.16 341.17 253.46 342.24 252.13" stroke="#F0F2DA" stroke-miterlimit="10"/>
<path d="M345.86 251.57C350.88 255.21 354.44 260.81 355.61 266.91C362.52 265.39 369.07 261.15 372.61 255.03C367.55 248.49 358.61 245.03 350.67 247.34" stroke="#F0F2DA" stroke-miterlimit="10"/>
<path d="M355.97 244.34C360.87 243.74 365.95 244.64 370.36 246.87" stroke="#F0F2DA" stroke-miterlimit="10"/>
<path d="M337.35 245.67C335 244.97 332.34 245.37 330.29 246.72C328.24 248.07 326.84 250.36 326.56 252.8C329.2 252.44 331.87 252.33 334.51 251.97" stroke="#F0F2DA" stroke-miterlimit="10"/>
<path d="M350.33 244C345.62 242.47 340.53 242.1 335.65 242.93" stroke="#F0F2DA" stroke-miterlimit="10"/>
</g>
<g opacity="0.3" clip-path="url(#clip11_747_237)">
<path d="M20.6001 73.02C20.8801 73.96 21.1701 74.9 21.4501 75.84" stroke="#F0F2DA" stroke-miterlimit="10"/>
<path d="M16.57 72.46L15.72 75.85" stroke="#F0F2DA" stroke-miterlimit="10"/>
<path d="M11.5301 72.47C10.8701 73.41 10.21 74.35 9.55005 75.29" stroke="#F0F2DA" stroke-miterlimit="10"/>
<path d="M7.28997 71.65C5.98997 71.63 4.74997 72.62 4.46997 73.88" stroke="#F0F2DA" stroke-miterlimit="10"/>
<path d="M17.24 66.04C18.48 64.86 20.48 64.46 21.98 65.29C23.48 66.12 24.19 68.22 23.32 69.69C22.45 71.16 20.04 71.46 18.97 70.13" stroke="#F0F2DA" stroke-miterlimit="10"/>
<path d="M15.3501 69.57C10.3301 73.21 6.7701 78.81 5.6001 84.91C-1.3099 83.39 -7.8599 79.15 -11.3999 73.03C-6.3399 66.49 2.6001 63.03 10.5401 65.34" stroke="#F0F2DA" stroke-miterlimit="10"/>
<path d="M5.2401 62.34C0.340097 61.74 -4.7399 62.64 -9.1499 64.87" stroke="#F0F2DA" stroke-miterlimit="10"/>
<path d="M23.8601 63.67C26.2101 62.97 28.8701 63.37 30.9201 64.72C32.9701 66.07 34.3701 68.36 34.6501 70.8C32.0101 70.44 29.3401 70.33 26.7001 69.97" stroke="#F0F2DA" stroke-miterlimit="10"/>
<path d="M10.8799 62C15.5899 60.47 20.6799 60.1 25.5599 60.93" stroke="#F0F2DA" stroke-miterlimit="10"/>
</g>
<g opacity="0.3" clip-path="url(#clip12_747_237)">
<path d="M260.26 449.13L261.11 451.95" stroke="#F0F2DA" stroke-miterlimit="10"/>
<path d="M256.22 448.57C255.94 449.7 255.65 450.83 255.37 451.96" stroke="#F0F2DA" stroke-miterlimit="10"/>
<path d="M256.89 442.15C258.13 440.97 260.13 440.57 261.63 441.4C263.13 442.23 263.84 444.33 262.97 445.8C262.1 447.27 259.69 447.57 258.62 446.24" stroke="#F0F2DA" stroke-miterlimit="10"/>
<path d="M255.07 446.86C245.07 445.05 235.33 441.75 226.29 437.12C235.01 437.53 243.65 439.54 251.66 443.01" stroke="#F0F2DA" stroke-miterlimit="10"/>
<path d="M264.38 443.54C266.44 441.54 268.81 439.86 271.37 438.57C261.56 436.04 251.45 434.68 241.32 434.52C241.94 435.21 242.31 436.12 242.35 437.05" stroke="#F0F2DA" stroke-miterlimit="10"/>
<path d="M249.98 450.32C250.17 449.76 250.36 449.19 250.54 448.63" stroke="#F0F2DA" stroke-miterlimit="10"/>
<path d="M243.48 448.62C244.14 448.24 244.8 447.87 245.46 447.49" stroke="#F0F2DA" stroke-miterlimit="10"/>
</g>
<g opacity="0.3" clip-path="url(#clip13_747_237)">
<path d="M894.95 717.36C892.43 709.74 889.92 702.12 887.4 694.5C880.65 696.68 874.32 700.19 868.91 704.78C871.86 710.17 876.77 714.47 882.5 716.69" stroke="#F0F2DA" stroke-miterlimit="10"/>
<path d="M892.14 699.1C892.33 697.59 892.95 695.69 893.14 694.18C898.99 692.96 905.5 693.31 910.93 695.8C909.83 701.08 907.55 706.11 904.32 710.42" stroke="#F0F2DA" stroke-miterlimit="10"/>
<path d="M875.76 716.32C872.66 714.89 870.36 713.23 868.43 710.1" stroke="#F0F2DA" stroke-miterlimit="10"/>
<path d="M884.78 700.12C880.95 700.57 877.26 702.22 874.39 704.79" stroke="#F0F2DA" stroke-miterlimit="10"/>
<path d="M885.88 704.03C884.63 703.66 883.16 704.43 882.76 705.67C882.36 706.91 883.09 708.4 884.32 708.83C885.55 709.26 887.06 708.56 887.52 707.35" stroke="#F0F2DA" stroke-miterlimit="10"/>
<path d="M906.79 699.42C905.89 698.52 904.59 697.94 903.33 698.17C902.07 698.39 900.97 699.55 901.05 700.82C901.13 702.09 902.62 703.14 903.77 702.58" stroke="#F0F2DA" stroke-miterlimit="10"/>
<path d="M898.91 697.4C897.4 697.68 895.9 697.96 894.39 698.25" stroke="#F0F2DA" stroke-miterlimit="10"/>
<path d="M899.8 719.41C900.08 720.35 900.37 721.29 900.65 722.23" stroke="#F0F2DA" stroke-miterlimit="10"/>
<path d="M895.76 718.85L894.91 722.24" stroke="#F0F2DA" stroke-miterlimit="10"/>
<path d="M890.72 718.86C890.06 719.8 889.4 720.74 888.74 721.68" stroke="#F0F2DA" stroke-miterlimit="10"/>
<path d="M886.49 718.04C885.19 718.02 883.95 719.01 883.67 720.27" stroke="#F0F2DA" stroke-miterlimit="10"/>
<path d="M896.43 712.43C897.67 711.25 899.67 710.85 901.17 711.68C902.67 712.51 903.38 714.61 902.51 716.08C901.64 717.55 899.23 717.85 898.16 716.52" stroke="#F0F2DA" stroke-miterlimit="10"/>
</g>
<g opacity="0.3" clip-path="url(#clip14_747_237)">
<path d="M572.55 75.36C575.07 67.74 577.58 60.12 580.1 52.5C586.85 54.68 593.18 58.19 598.59 62.78C595.64 68.17 590.73 72.47 585 74.69" stroke="#F0F2DA" stroke-miterlimit="10"/>
<path d="M575.36 57.1C575.17 55.59 574.55 53.69 574.36 52.18C568.51 50.96 562 51.31 556.57 53.8C557.67 59.08 559.95 64.11 563.18 68.42" stroke="#F0F2DA" stroke-miterlimit="10"/>
<path d="M591.74 74.32C594.84 72.89 597.14 71.23 599.07 68.1" stroke="#F0F2DA" stroke-miterlimit="10"/>
<path d="M582.72 58.12C586.55 58.57 590.24 60.22 593.11 62.79" stroke="#F0F2DA" stroke-miterlimit="10"/>
<path d="M581.62 62.03C582.87 61.66 584.34 62.43 584.74 63.67C585.14 64.91 584.41 66.4 583.18 66.83C581.95 67.26 580.44 66.56 579.98 65.35" stroke="#F0F2DA" stroke-miterlimit="10"/>
<path d="M560.71 57.42C561.61 56.52 562.91 55.94 564.17 56.17C565.43 56.39 566.53 57.55 566.45 58.82C566.37 60.09 564.88 61.14 563.73 60.58" stroke="#F0F2DA" stroke-miterlimit="10"/>
<path d="M568.59 55.4C570.1 55.68 571.6 55.96 573.11 56.25" stroke="#F0F2DA" stroke-miterlimit="10"/>
<path d="M567.7 77.41C567.42 78.35 567.13 79.29 566.85 80.23" stroke="#F0F2DA" stroke-miterlimit="10"/>
<path d="M571.74 76.85L572.59 80.24" stroke="#F0F2DA" stroke-miterlimit="10"/>
<path d="M576.78 76.86C577.44 77.8 578.1 78.74 578.76 79.68" stroke="#F0F2DA" stroke-miterlimit="10"/>
<path d="M581.01 76.04C582.31 76.02 583.55 77.01 583.83 78.27" stroke="#F0F2DA" stroke-miterlimit="10"/>
<path d="M571.07 70.43C569.83 69.25 567.83 68.85 566.33 69.68C564.83 70.51 564.12 72.61 564.99 74.08C565.86 75.55 568.27 75.85 569.34 74.52" stroke="#F0F2DA" stroke-miterlimit="10"/>
</g>
<g opacity="0.3" clip-path="url(#clip15_747_237)">
<path d="M12.5501 467.36C15.0701 459.74 17.5801 452.12 20.1001 444.5C26.8501 446.68 33.1801 450.19 38.5901 454.78C35.6401 460.17 30.7301 464.47 25.0001 466.69" stroke="#F0F2DA" stroke-miterlimit="10"/>
<path d="M15.3601 449.1C15.1701 447.59 14.5501 445.69 14.3601 444.18C8.51011 442.96 2.00011 443.31 -3.42989 445.8C-2.32989 451.08 -0.0498929 456.11 3.18011 460.42" stroke="#F0F2DA" stroke-miterlimit="10"/>
<path d="M31.7401 466.32C34.8401 464.89 37.1401 463.23 39.0701 460.1" stroke="#F0F2DA" stroke-miterlimit="10"/>
<path d="M22.7201 450.12C26.5501 450.57 30.2401 452.22 33.1101 454.79" stroke="#F0F2DA" stroke-miterlimit="10"/>
<path d="M21.6199 454.03C22.8699 453.66 24.3399 454.43 24.7399 455.67C25.1399 456.91 24.4099 458.4 23.1799 458.83C21.9499 459.26 20.4399 458.56 19.9799 457.35" stroke="#F0F2DA" stroke-miterlimit="10"/>
<path d="M0.709991 449.42C1.60999 448.52 2.90999 447.94 4.16999 448.17C5.42999 448.39 6.52999 449.55 6.44999 450.82C6.36999 452.09 4.87999 453.14 3.72999 452.58" stroke="#F0F2DA" stroke-miterlimit="10"/>
<path d="M8.59011 447.4C10.1001 447.68 11.6001 447.96 13.1101 448.25" stroke="#F0F2DA" stroke-miterlimit="10"/>
<path d="M7.69995 469.41C7.41995 470.35 7.12995 471.29 6.84995 472.23" stroke="#F0F2DA" stroke-miterlimit="10"/>
<path d="M11.7401 468.85L12.5901 472.24" stroke="#F0F2DA" stroke-miterlimit="10"/>
<path d="M16.78 468.86C17.44 469.8 18.1 470.74 18.76 471.68" stroke="#F0F2DA" stroke-miterlimit="10"/>
<path d="M21.0101 468.04C22.3101 468.02 23.5501 469.01 23.8301 470.27" stroke="#F0F2DA" stroke-miterlimit="10"/>
<path d="M11.0701 462.43C9.83007 461.25 7.83007 460.85 6.33007 461.68C4.83007 462.51 4.12007 464.61 4.99007 466.08C5.86007 467.55 8.27007 467.85 9.34007 466.52" stroke="#F0F2DA" stroke-miterlimit="10"/>
</g>
<g opacity="0.3" clip-path="url(#clip16_747_237)">
<path d="M1130.55 379.36C1133.07 371.74 1135.58 364.12 1138.1 356.5C1144.85 358.68 1151.18 362.19 1156.59 366.78C1153.64 372.17 1148.73 376.47 1143 378.69" stroke="#F0F2DA" stroke-miterlimit="10"/>
<path d="M1133.36 361.1C1133.17 359.59 1132.55 357.69 1132.36 356.18C1126.51 354.96 1120 355.31 1114.57 357.8C1115.67 363.08 1117.95 368.11 1121.18 372.42" stroke="#F0F2DA" stroke-miterlimit="10"/>
<path d="M1149.74 378.32C1152.84 376.89 1155.14 375.23 1157.07 372.1" stroke="#F0F2DA" stroke-miterlimit="10"/>
<path d="M1140.72 362.12C1144.55 362.57 1148.24 364.22 1151.11 366.79" stroke="#F0F2DA" stroke-miterlimit="10"/>
<path d="M1139.62 366.03C1140.87 365.66 1142.34 366.43 1142.74 367.67C1143.14 368.91 1142.41 370.4 1141.18 370.83C1139.95 371.26 1138.44 370.56 1137.98 369.35" stroke="#F0F2DA" stroke-miterlimit="10"/>
<path d="M1118.71 361.42C1119.61 360.52 1120.91 359.94 1122.17 360.17C1123.43 360.39 1124.53 361.55 1124.45 362.82C1124.37 364.09 1122.88 365.14 1121.73 364.58" stroke="#F0F2DA" stroke-miterlimit="10"/>
<path d="M1126.59 359.4C1128.1 359.68 1129.6 359.96 1131.11 360.25" stroke="#F0F2DA" stroke-miterlimit="10"/>
<path d="M1125.7 381.41C1125.42 382.35 1125.13 383.29 1124.85 384.23" stroke="#F0F2DA" stroke-miterlimit="10"/>
<path d="M1129.74 380.85L1130.59 384.24" stroke="#F0F2DA" stroke-miterlimit="10"/>
<path d="M1134.78 380.86C1135.44 381.8 1136.1 382.74 1136.76 383.68" stroke="#F0F2DA" stroke-miterlimit="10"/>
<path d="M1139.01 380.04C1140.31 380.02 1141.55 381.01 1141.83 382.27" stroke="#F0F2DA" stroke-miterlimit="10"/>
<path d="M1129.07 374.43C1127.83 373.25 1125.83 372.85 1124.33 373.68C1122.83 374.51 1122.12 376.61 1122.99 378.08C1123.86 379.55 1126.27 379.85 1127.34 378.52" stroke="#F0F2DA" stroke-miterlimit="10"/>
</g>
<g opacity="0.3" clip-path="url(#clip17_747_237)">
<path d="M306.029 676.655C356.316 684.788 406.472 693.538 456.828 701.682" stroke="#F0F2DA" stroke-miterlimit="10"/>
<path d="M460.258 704.151C454.969 741.8 450.499 780.27 444.365 818.197C389.854 808.813 334.072 799.083 279.383 790.237" stroke="#F0F2DA" stroke-miterlimit="10"/>
<path d="M304.164 676.353C299.243 706.778 293.887 736.95 287.605 766.708C286.268 773.036 285.555 779.576 284.522 785.963" stroke="#F0F2DA" stroke-miterlimit="10"/>
<path d="M310.914 681.902C305.723 681.427 311.677 689.025 312.057 682.725" stroke="#F0F2DA" stroke-miterlimit="10"/>
<path d="M318.368 683.107C318.157 683.468 317.177 683.452 316.863 684.14C317.898 685.26 317.302 685.376 319.126 685.682C319.804 684.373 319.282 683.782 319.08 682.584" stroke="#F0F2DA" stroke-miterlimit="10"/>
<path d="M325.821 684.313C325.288 684.976 324.129 684.252 324.368 685.901C325.005 686.227 325.916 686.668 326.5 686.874C328.539 686.171 327.972 685.481 327.777 683.991" stroke="#F0F2DA" stroke-miterlimit="10"/>
<path d="M306.599 688.852C318.401 688.978 331.387 692.861 343.421 694.807C358.495 697.245 373.464 700.335 388.483 702.734C403.483 705.129 418.355 707.565 433.498 710.014L451.188 712.875" stroke="#F0F2DA" stroke-miterlimit="10"/>
<path d="M306.086 699.355L291.656 784.442L318.971 788.86L335.556 702.784L313.156 700.174" stroke="#F0F2DA" stroke-miterlimit="10"/>
<path d="M444.121 733.025L446.56 722.074L342.713 703.942L339.957 716.847L438.775 732.191" stroke="#F0F2DA" stroke-miterlimit="10"/>
<path d="M334.237 743.952L365.635 748.361L368.14 728.739L338.802 723.994L335.717 737.495" stroke="#F0F2DA" stroke-miterlimit="10"/>
<path d="M403.043 735.722L374.646 729.792L372.035 750.065L400.54 755.333L402.509 739.9" stroke="#F0F2DA" stroke-miterlimit="10"/>
<path d="M436.419 760.478L440.006 742.368L410.306 736.228L407.149 755.744L431.661 759.708" stroke="#F0F2DA" stroke-miterlimit="10"/>
<path d="M286.304 796.928C331.437 804.228 376.103 812.789 421.029 820.055L449.973 824.736C455.546 795.916 458.24 765.354 463.027 735.759C464.157 728.77 467.896 717.553 466.319 711.27" stroke="#F0F2DA" stroke-miterlimit="10"/>
</g>
</g>
<defs>
<clipPath id="clip0_747_237">
<rect width="1500" height="750" fill="white"/>
</clipPath>
<clipPath id="clip1_747_237">
<rect width="357" height="336" fill="white" transform="translate(1168 427)"/>
</clipPath>
<clipPath id="clip2_747_237">
<rect width="329" height="157" fill="white" transform="translate(127 50)"/>
</clipPath>
<clipPath id="clip3_747_237">
<rect width="277" height="318" fill="white" transform="translate(880 34)"/>
</clipPath>
<clipPath id="clip4_747_237">
<rect width="265" height="203" fill="white" transform="translate(492 147)"/>
</clipPath>
<clipPath id="clip5_747_237">
<rect width="384.3" height="152.22" fill="white" transform="translate(1220 43)"/>
</clipPath>
<clipPath id="clip6_747_237">
<rect width="215" height="262" fill="white" transform="translate(43.3516 467.763) rotate(20.3808)"/>
</clipPath>
<clipPath id="clip7_747_237">
<rect width="725" height="267" fill="white" transform="translate(381 414)"/>
</clipPath>
<clipPath id="clip8_747_237">
<rect width="329" height="82" fill="white" transform="matrix(-1 0 0 1 313 284)"/>
</clipPath>
<clipPath id="clip9_747_237">
<rect width="47.21" height="25.51" fill="white" transform="translate(520 366)"/>
</clipPath>
<clipPath id="clip10_747_237">
<rect width="47.21" height="25.51" fill="white" transform="matrix(-1 0 0 1 373.21 242)"/>
</clipPath>
<clipPath id="clip11_747_237">
<rect width="47.21" height="25.51" fill="white" transform="translate(-12 60)"/>
</clipPath>
<clipPath id="clip12_747_237">
<rect width="48.79" height="18.1" fill="white" transform="translate(224 434)"/>
</clipPath>
<clipPath id="clip13_747_237">
<rect width="43.5" height="29.38" fill="white" transform="translate(868 693)"/>
</clipPath>
<clipPath id="clip14_747_237">
<rect width="43.5" height="29.38" fill="white" transform="matrix(-1 0 0 1 599.5 51)"/>
</clipPath>
<clipPath id="clip15_747_237">
<rect width="43.5" height="29.38" fill="white" transform="matrix(-1 0 0 1 39.5 443)"/>
</clipPath>
<clipPath id="clip16_747_237">
<rect width="43.5" height="29.38" fill="white" transform="matrix(-1 0 0 1 1157.5 355)"/>
</clipPath>
<clipPath id="clip17_747_237">
<rect width="174.64" height="124.19" fill="white" transform="translate(298.034 674.855) rotate(9.18713)"/>
</clipPath>
</defs>
</svg>
