<svg width="179" height="40" viewBox="0 0 179 40" fill="none" xmlns="http://www.w3.org/2000/svg">
<g clip-path="url(#clip0_11_6)">
<path d="M68.8015 33.3708C67.8652 33.3708 67.0038 33.221 66.2547 32.9213C65.5056 32.6217 64.9438 32.1723 64.5318 31.6105C64.1199 31.0487 63.8951 30.3371 63.8951 29.5131C63.8951 28.5768 64.1573 27.8277 64.6442 27.2659C65.1685 26.6666 65.8427 26.2547 66.6667 25.9176C67.4906 25.618 68.427 25.3932 69.4008 25.3183C70.824 25.1685 71.8352 25.0562 72.3596 24.9438C72.9214 24.8314 73.1835 24.6442 73.1835 24.3445C73.1835 24.3445 73.1835 24.3445 73.1835 24.3071C73.1835 23.8202 72.9588 23.4457 72.4719 23.146C72.0225 22.8839 71.3483 22.7341 70.5244 22.7341C69.6629 22.7341 68.9888 22.8839 68.5019 23.221C68.0524 23.5206 67.7903 24.0075 67.7903 24.6816H64.045C64.045 23.6329 64.3446 22.7341 64.9064 22.0225C65.4682 21.3108 66.2547 20.749 67.2285 20.3745C68.2023 20 69.2884 19.8127 70.5244 19.8127C71.6854 19.8127 72.7341 20 73.7079 20.3371C74.6817 20.6741 75.4682 21.1985 76.0674 21.9101C76.6667 22.6217 76.9663 23.4831 76.9663 24.5693C76.9663 24.7565 76.9663 24.9063 76.9663 25.0936C76.9663 25.2434 76.9663 25.4307 76.9663 25.618V30.2247C76.9663 30.5618 76.9663 30.8989 77.0038 31.1985C77.0412 31.4981 77.0787 31.7977 77.1536 32.0225C77.2285 32.3221 77.3408 32.5468 77.4532 32.7341C77.5656 32.9213 77.6779 33.0711 77.7528 33.146H74.0075C73.9326 33.0711 73.8577 32.9588 73.7453 32.7715C73.633 32.5843 73.5206 32.397 73.4457 32.1348C73.3333 31.8352 73.2584 31.573 73.221 31.2734C73.1835 30.9738 73.1461 30.6367 73.1461 30.2622L73.9326 30.7865C73.7079 31.3108 73.3333 31.7977 72.809 32.1723C72.2846 32.5468 71.6854 32.8464 70.9738 33.0711C70.3745 33.2584 69.6255 33.3708 68.8015 33.3708ZM69.8127 30.5243C70.412 30.5243 70.9738 30.412 71.4981 30.1872C72.0225 29.9625 72.4345 29.6254 72.7715 29.176C73.1086 28.7266 73.2584 28.0899 73.2584 27.3408V26.0299L74.1948 26.9663C73.6704 27.1535 73.0337 27.3408 72.3221 27.4532C71.6105 27.5655 70.8989 27.6779 70.1873 27.7528C69.3633 27.8277 68.7266 27.9775 68.3146 28.1648C67.9026 28.352 67.6779 28.6891 67.6779 29.176C67.6779 29.6254 67.8652 29.9625 68.2023 30.1872C68.6142 30.412 69.1386 30.5243 69.8127 30.5243Z" fill="#010101"/>
<path d="M85.4307 33.3334C84.4944 33.3334 83.7453 33.1835 83.1461 32.8839C82.5468 32.5843 82.0599 32.1723 81.7228 31.6854C81.3858 31.1611 81.1236 30.5993 81.0112 30C80.8614 29.3633 80.7865 28.7641 80.7865 28.0899C80.7865 27.7903 80.7865 27.4907 80.7865 27.1536C80.7865 26.8165 80.7865 26.4794 80.7865 26.1423V20.0375H84.6067V25.5431C84.6067 25.8053 84.6067 26.1049 84.6067 26.3671C84.6067 26.6292 84.6067 26.854 84.6067 27.0787C84.6067 27.6405 84.6816 28.1274 84.794 28.5768C84.9063 29.0262 85.1311 29.4008 85.4681 29.7004C85.8052 29.9626 86.2921 30.1124 86.8914 30.1124C87.4906 30.1124 88.015 29.9251 88.427 29.588C88.8389 29.251 89.176 28.8015 89.4007 28.2772C89.6255 27.7528 89.7378 27.191 89.7378 26.6292L90.824 27.4907C90.824 28.3146 90.7116 29.0637 90.4494 29.7753C90.1873 30.4869 89.8502 31.0862 89.4007 31.6105C88.9513 32.1349 88.3895 32.5468 87.7153 32.8465C87.0037 33.1835 86.2547 33.3334 85.4307 33.3334ZM89.7004 33.1086V20.0375H93.5206V33.0712H89.7004V33.1086Z" fill="#010101"/>
<path d="M103.783 33.3708C103.296 33.3708 102.772 33.3334 102.247 33.2585C101.723 33.1836 101.236 32.9963 100.787 32.7341C100.337 32.472 99.9625 32.0974 99.7004 31.6105C99.4382 31.1236 99.2884 30.4495 99.2884 29.6255C99.2884 29.4382 99.2884 29.251 99.2884 29.0637C99.2884 28.8764 99.2884 28.6892 99.2884 28.5019V22.9963H96.2921V20.0375H97.1535C97.6404 20.0375 98.0524 20 98.3146 19.9626C98.5768 19.9251 98.8389 19.8128 98.9513 19.663C99.1011 19.5131 99.176 19.2135 99.2135 18.8764C99.2509 18.5019 99.2884 18.015 99.2884 17.3783V15.7304H103.109V20.0375H106.891V22.9963H103.109V27.6779C103.109 27.8278 103.109 27.9776 103.109 28.0899C103.109 28.2397 103.109 28.3521 103.109 28.5019C103.109 29.0637 103.183 29.5132 103.296 29.8877C103.446 30.2248 103.783 30.412 104.307 30.412C104.569 30.412 104.831 30.3746 105.094 30.3371C105.318 30.2997 105.506 30.2248 105.655 30.1873V33.0338C105.468 33.1087 105.243 33.1836 104.944 33.221C104.569 33.3334 104.195 33.3708 103.783 33.3708Z" fill="#010101"/>
<path d="M110.075 33.1086V13.8951H113.895V33.1086H110.075ZM119.288 33.1086V28.4644C119.288 28.3146 119.288 28.0899 119.288 27.7903C119.288 27.4906 119.288 27.2285 119.288 26.9289C119.288 26.6292 119.288 26.4045 119.288 26.2172C119.288 25.206 119.101 24.4569 118.764 23.8951C118.389 23.3333 117.753 23.0712 116.779 23.0712C116.142 23.0712 115.618 23.1835 115.206 23.4457C114.794 23.7079 114.457 24.045 114.232 24.4944C114.007 24.9438 113.895 25.4682 113.895 26.0674L112.771 25.3184C112.771 24.2322 112.996 23.2584 113.483 22.4345C113.933 21.6105 114.607 20.9738 115.431 20.4869C116.255 20.0375 117.191 19.7753 118.277 19.7753C119.888 19.7753 121.086 20.2622 121.873 21.1985C122.659 22.1348 123.071 23.4457 123.071 25.1311C123.071 25.5431 123.071 26.0674 123.071 26.6667C123.071 27.2659 123.071 27.9401 123.071 28.7266V33.0712H119.288V33.1086Z" fill="#010101"/>
<path d="M133.184 33.3708C132.697 33.3708 132.172 33.3334 131.648 33.2585C131.124 33.1836 130.637 32.9963 130.187 32.7341C129.738 32.472 129.363 32.0974 129.101 31.6105C128.839 31.1236 128.689 30.4495 128.689 29.6255C128.689 29.4382 128.689 29.251 128.689 29.0637C128.689 28.8764 128.689 28.6892 128.689 28.5019V22.9963H125.693V20.0375H126.554C127.041 20.0375 127.453 20 127.715 19.9626C127.978 19.9251 128.24 19.8128 128.352 19.663C128.502 19.5131 128.577 19.2135 128.614 18.8764C128.652 18.5019 128.689 18.015 128.689 17.3783V15.7304H132.509V20.0375H136.292V22.9963H132.509V27.6779C132.509 27.8278 132.509 27.9776 132.509 28.0899C132.509 28.2397 132.509 28.3521 132.509 28.5019C132.509 29.0637 132.584 29.5132 132.697 29.8877C132.846 30.2248 133.184 30.412 133.708 30.412C133.97 30.412 134.232 30.3746 134.494 30.3371C134.719 30.2997 134.906 30.2248 135.056 30.1873V33.0338C134.869 33.1087 134.644 33.1836 134.345 33.221C133.97 33.3334 133.633 33.3708 133.184 33.3708Z" fill="#010101"/>
<path d="M139.513 33.1086V20.0374H143.333V24.5318L142.547 24.0449C142.622 23.4457 142.809 22.8464 143.034 22.3595C143.258 21.8352 143.596 21.3858 143.97 21.0112C144.345 20.6367 144.794 20.3371 145.318 20.1123C145.843 19.8876 146.442 19.7753 147.116 19.7753C147.64 19.7753 148.052 19.8127 148.352 19.8876C148.652 19.9625 148.839 20.0374 148.914 20.0749L148.277 23.4831C148.202 23.4457 148.052 23.3708 147.79 23.2959C147.528 23.221 147.191 23.1461 146.817 23.1461C146.142 23.1461 145.618 23.2584 145.169 23.4831C144.719 23.7079 144.382 24.0075 144.12 24.3446C143.858 24.7191 143.67 25.0936 143.558 25.5431C143.446 25.9925 143.371 26.4419 143.371 26.8914V33.0337H139.513V33.1086Z" fill="#010101"/>
<path d="M155.131 33.3708C154.195 33.3708 153.333 33.221 152.584 32.9213C151.835 32.6217 151.273 32.1723 150.861 31.6105C150.449 31.0487 150.225 30.3371 150.225 29.5131C150.225 28.5768 150.487 27.8277 150.974 27.2659C151.498 26.6666 152.172 26.2547 152.996 25.9176C153.82 25.618 154.757 25.3932 155.73 25.3183C157.154 25.1685 158.165 25.0562 158.689 24.9438C159.251 24.8314 159.513 24.6442 159.513 24.3445C159.513 24.3445 159.513 24.3445 159.513 24.3071C159.513 23.8202 159.288 23.4457 158.801 23.146C158.352 22.8839 157.678 22.7341 156.854 22.7341C155.992 22.7341 155.318 22.8839 154.831 23.221C154.382 23.5206 154.12 24.0075 154.12 24.6816H150.374C150.374 23.6329 150.674 22.7341 151.236 22.0225C151.798 21.3108 152.584 20.749 153.558 20.3745C154.532 20 155.618 19.8127 156.854 19.8127C158.015 19.8127 159.064 20 160.037 20.3371C161.011 20.6741 161.798 21.1985 162.397 21.9101C162.996 22.6217 163.296 23.4831 163.296 24.5693C163.296 24.7565 163.296 24.9063 163.296 25.0936C163.296 25.2434 163.296 25.4307 163.296 25.618V30.2247C163.296 30.5618 163.296 30.8989 163.333 31.1985C163.371 31.4981 163.408 31.7977 163.483 32.0225C163.558 32.3221 163.67 32.5468 163.783 32.7341C163.895 32.9213 164.007 33.0711 164.082 33.146H160.337C160.262 33.0711 160.187 32.9588 160.075 32.7715C159.963 32.5843 159.85 32.397 159.775 32.1348C159.663 31.8352 159.588 31.573 159.551 31.2734C159.513 30.9738 159.476 30.6367 159.476 30.2622L160.262 30.7865C160.037 31.3108 159.663 31.7977 159.139 32.1723C158.614 32.5468 158.015 32.8464 157.303 33.0711C156.667 33.2584 155.918 33.3708 155.131 33.3708ZM156.142 30.5243C156.742 30.5243 157.303 30.412 157.828 30.1872C158.352 29.9625 158.764 29.6254 159.101 29.176C159.438 28.7266 159.588 28.0899 159.588 27.3408V26.0299L160.524 26.9663C160 27.1535 159.363 27.3408 158.652 27.4532C157.94 27.5655 157.228 27.6779 156.517 27.7528C155.693 27.8277 155.056 27.9775 154.644 28.1648C154.232 28.352 154.007 28.6891 154.007 29.176C154.007 29.6254 154.195 29.9625 154.532 30.1872C154.906 30.412 155.431 30.5243 156.142 30.5243Z" fill="#010101"/>
<path d="M169.064 17.9026C168.464 17.9026 167.978 17.7528 167.528 17.4532C167.079 17.1536 166.854 16.7041 166.854 16.1423C166.854 15.5805 167.079 15.1311 167.528 14.8315C167.978 14.5318 168.464 14.382 169.064 14.382C169.663 14.382 170.187 14.5318 170.637 14.8315C171.086 15.1311 171.311 15.5805 171.311 16.1423C171.311 16.7041 171.086 17.1536 170.637 17.4532C170.187 17.7528 169.663 17.9026 169.064 17.9026ZM167.191 33.1086V20.0374H170.974V33.0712H167.191V33.1086Z" fill="#010101"/>
<path d="M178.801 13.8951V33.1086H175.056V13.8951H178.801Z" fill="#010101"/>
<path d="M26.1049 20.412L45.6929 40L52.2097 33.4457L32.6592 13.8577L40 6.51685L33.4457 0L0 33.4457L6.51685 40L26.1049 20.412Z" fill="#7F5AF0"/>
</g>
<defs>
<clipPath id="clip0_11_6">
<rect width="178.801" height="40" fill="white"/>
</clipPath>
</defs>
</svg>
