<svg width="348" height="60" viewBox="0 0 348 60" fill="none" xmlns="http://www.w3.org/2000/svg">
<g clip-path="url(#clip0_730_483)">
<path d="M135.567 48.4058L132.494 37.5662H119.625L116.552 48.4058H109.945L121.769 7.94103H130.64L142.464 48.4058H135.567ZM126.292 14.4928H125.827L120.84 32.2339H131.274L126.287 14.4928H126.292ZM148.146 18.4908H154.463V23.5932H154.813C155.702 21.7791 156.882 20.3548 158.351 19.3303C159.82 18.3058 161.654 17.7961 163.858 17.7961C167.376 17.7961 170.175 19.1104 172.264 21.7391C174.353 24.3678 175.392 28.2709 175.392 33.4483C175.392 38.6257 174.348 42.5287 172.264 45.1574C170.175 47.7861 167.376 49.1005 163.858 49.1005C161.654 49.1005 159.82 48.5857 158.351 47.5662C156.882 46.5417 155.702 45.1224 154.813 43.3034H154.463V60H148.146V18.4908ZM161.249 43.938C163.643 43.938 165.492 43.2034 166.787 41.7341C168.081 40.2649 168.731 38.3158 168.731 35.8771V31.0095C168.731 28.5757 168.081 26.6217 166.787 25.1524C165.492 23.6832 163.648 22.9485 161.249 22.9485C160.32 22.9485 159.45 23.0635 158.641 23.2984C157.831 23.5332 157.111 23.8781 156.497 24.3428C155.877 24.8076 155.387 25.3773 155.017 26.052C154.648 26.7266 154.468 27.5312 154.468 28.4558V38.4258C154.468 39.3553 154.653 40.1549 155.017 40.8296C155.382 41.5042 155.877 42.074 156.497 42.5387C157.116 43.0035 157.831 43.3483 158.641 43.5832C159.45 43.8181 160.32 43.933 161.249 43.933V43.938ZM184.203 43.2434H194.408V23.6482H184.203V18.4908H200.725V43.2434H210.29V48.4008H184.203V43.2434ZM197.596 13.0385C195.972 13.0385 194.843 12.7086 194.203 12.054C193.563 11.3993 193.248 10.5847 193.248 9.62019V8.4008C193.248 7.43628 193.568 6.62169 194.203 5.96702C194.843 5.31234 195.952 4.98251 197.536 4.98251C199.12 4.98251 200.29 5.31234 200.93 5.96702C201.569 6.62669 201.884 7.43628 201.884 8.4008V9.62019C201.884 10.5847 201.564 11.3993 200.93 12.054C200.29 12.7136 199.18 13.0385 197.596 13.0385ZM217.481 43.2434H227.396V10.6647H217.481V5.50725H233.713V43.2434H243.628V48.4008H217.481V43.2434ZM252.264 43.2434H262.179V10.6647H252.264V5.50725H268.496V43.2434H278.411V48.4008H252.264V43.2434V43.2434ZM300.09 49.1005C297.886 49.1005 295.907 48.7306 294.148 48.001C292.389 47.2664 290.9 46.2219 289.685 44.8726C288.466 43.5182 287.531 41.8791 286.872 39.945C286.212 38.011 285.887 35.8471 285.887 33.4533C285.887 31.0595 286.217 28.8956 286.872 26.9615C287.526 25.0275 288.466 23.3883 289.685 22.034C290.905 20.6797 292.389 19.6402 294.148 18.9055C295.907 18.1709 297.886 17.8061 300.09 17.8061C302.294 17.8061 304.273 18.1759 306.032 18.9055C307.791 19.6402 309.28 20.6847 310.495 22.034C311.714 23.3883 312.649 25.0275 313.308 26.9615C313.963 28.8956 314.293 31.0595 314.293 33.4533C314.293 35.8471 313.963 38.016 313.308 39.945C312.649 41.8791 311.714 43.5182 310.495 44.8726C309.275 46.2269 307.791 47.2714 306.032 48.001C304.273 48.7356 302.294 49.1005 300.09 49.1005ZM300.09 44.1129C302.409 44.1129 304.253 43.4083 305.627 41.999C306.997 40.5897 307.686 38.4908 307.686 35.7071V31.1844C307.686 28.4008 307.002 26.3068 305.627 24.8926C304.253 23.4833 302.409 22.7786 300.09 22.7786C297.771 22.7786 295.927 23.4833 294.553 24.8926C293.178 26.3019 292.494 28.4008 292.494 31.1844V35.7071C292.494 38.4908 293.178 40.5847 294.553 41.999C295.922 43.4083 297.771 44.1129 300.09 44.1129ZM322.349 48.4008V18.4908H328.666V23.5932H328.956C329.265 22.8186 329.66 22.079 330.145 21.3593C330.63 20.6447 331.219 20.025 331.914 19.5052C332.609 18.9855 333.423 18.5707 334.348 18.2609C335.277 17.951 336.357 17.7961 337.596 17.7961C340.61 17.7961 343.043 18.7806 344.903 20.7546C346.762 22.7286 347.686 25.5272 347.686 29.1604V48.4058H341.369V30.085C341.369 25.3323 339.3 22.9535 335.167 22.9535C334.358 22.9535 333.563 23.0585 332.789 23.2734C332.014 23.4883 331.319 23.8031 330.7 24.2279C330.08 24.6527 329.59 25.1924 329.22 25.8521C328.851 26.5117 328.671 27.2614 328.671 28.1109V48.4008H322.354H322.349ZM39.98 29.985L0 0V59.97L39.98 29.985ZM39.98 29.985L79.96 59.97V0L39.98 29.985Z" fill="#F0F2DA"/>
</g>
<defs>
<clipPath id="clip0_730_483">
<rect width="348" height="60" fill="white"/>
</clipPath>
</defs>
</svg>
